<svg xmlns="http://www.w3.org/2000/svg" viewBox="0 0 820 420" font-family="Consolas, monospace">
  <defs>
    <style>
      .axis-label { font-size: 11px; fill: #b0bec5; }
      .title { font-size: 14px; fill: #eceff1; font-weight: bold; }
      .grid { stroke: #37474f; stroke-width: 0.5; }
      .axis { stroke: #607d8b; stroke-width: 1.5; }
      .milestone { font-size: 9px; fill: #b0bec5; }
      .value-dot { fill: #ef5350; }
    </style>
  </defs>
  <rect width="820" height="420" rx="8" fill="#1a1a2e"/>
  <text x="410" y="28" text-anchor="middle" class="title">Last Breath — Decay Phase Detail (exp=2.5)</text>
  <line x1="65" y1="365.0" x2="800" y2="365.0" class="grid"/>
  <text x="60" y="369.0" text-anchor="end" class="axis-label">89%</text>
  <line x1="65" y1="335.9" x2="800" y2="335.9" class="grid"/>
  <text x="60" y="339.9" text-anchor="end" class="axis-label">90%</text>
  <line x1="65" y1="306.8" x2="800" y2="306.8" class="grid"/>
  <text x="60" y="310.8" text-anchor="end" class="axis-label">91%</text>
  <line x1="65" y1="277.7" x2="800" y2="277.7" class="grid"/>
  <text x="60" y="281.7" text-anchor="end" class="axis-label">92%</text>
  <line x1="65" y1="248.6" x2="800" y2="248.6" class="grid"/>
  <text x="60" y="252.6" text-anchor="end" class="axis-label">93%</text>
  <line x1="65" y1="219.5" x2="800" y2="219.5" class="grid"/>
  <text x="60" y="223.5" text-anchor="end" class="axis-label">94%</text>
  <line x1="65" y1="190.5" x2="800" y2="190.5" class="grid"/>
  <text x="60" y="194.5" text-anchor="end" class="axis-label">95%</text>
  <line x1="65" y1="161.4" x2="800" y2="161.4" class="grid"/>
  <text x="60" y="165.4" text-anchor="end" class="axis-label">96%</text>
  <line x1="65" y1="132.3" x2="800" y2="132.3" class="grid"/>
  <text x="60" y="136.3" text-anchor="end" class="axis-label">97%</text>
  <line x1="65" y1="103.2" x2="800" y2="103.2" class="grid"/>
  <text x="60" y="107.2" text-anchor="end" class="axis-label">98%</text>
  <line x1="65" y1="74.1" x2="800" y2="74.1" class="grid"/>
  <text x="60" y="78.1" text-anchor="end" class="axis-label">99%</text>
  <line x1="65" y1="45.0" x2="800" y2="45.0" class="grid"/>
  <text x="60" y="49.0" text-anchor="end" class="axis-label">100%</text>
  <line x1="65.0" y1="45" x2="65.0" y2="365" class="grid"/>
  <text x="65.0" y="383" text-anchor="middle" class="axis-label">0%</text>
  <line x1="138.5" y1="45" x2="138.5" y2="365" class="grid"/>
  <text x="138.5" y="383" text-anchor="middle" class="axis-label">10%</text>
  <line x1="212.0" y1="45" x2="212.0" y2="365" class="grid"/>
  <text x="212.0" y="383" text-anchor="middle" class="axis-label">20%</text>
  <line x1="285.5" y1="45" x2="285.5" y2="365" class="grid"/>
  <text x="285.5" y="383" text-anchor="middle" class="axis-label">30%</text>
  <line x1="359.0" y1="45" x2="359.0" y2="365" class="grid"/>
  <text x="359.0" y="383" text-anchor="middle" class="axis-label">40%</text>
  <line x1="432.5" y1="45" x2="432.5" y2="365" class="grid"/>
  <text x="432.5" y="383" text-anchor="middle" class="axis-label">50%</text>
  <line x1="506.0" y1="45" x2="506.0" y2="365" class="grid"/>
  <text x="506.0" y="383" text-anchor="middle" class="axis-label">60%</text>
  <line x1="579.5" y1="45" x2="579.5" y2="365" class="grid"/>
  <text x="579.5" y="383" text-anchor="middle" class="axis-label">70%</text>
  <line x1="653.0" y1="45" x2="653.0" y2="365" class="grid"/>
  <text x="653.0" y="383" text-anchor="middle" class="axis-label">80%</text>
  <line x1="726.5" y1="45" x2="726.5" y2="365" class="grid"/>
  <text x="726.5" y="383" text-anchor="middle" class="axis-label">90%</text>
  <line x1="800.0" y1="45" x2="800.0" y2="365" class="grid"/>
  <text x="800.0" y="383" text-anchor="middle" class="axis-label">100%</text>
  <line x1="65" y1="45" x2="65" y2="365" class="axis"/>
  <line x1="65" y1="365" x2="800" y2="365" class="axis"/>
  <text x="432.5" y="412" text-anchor="middle" class="axis-label">Decay Progress %</text>
  <text x="15" y="205.0" text-anchor="middle" class="axis-label" transform="rotate(-90, 15, 205.0)">Dilation %</text>
  <path d="M 65.0,365.0 L 65.0,63.9 L 72.3,70.7 L 79.7,77.3 L 87.0,83.9 L 94.4,90.3 L 101.8,96.6 L 109.1,102.9 L 116.5,109.0 L 123.8,115.1 L 131.1,121.0 L 138.5,126.9 L 145.8,132.7 L 153.2,138.3 L 160.6,143.9 L 167.9,149.4 L 175.2,154.7 L 182.6,160.0 L 189.9,165.2 L 197.3,170.3 L 204.7,175.3 L 212.0,180.2 L 219.3,185.0 L 226.7,189.8 L 234.1,194.4 L 241.4,198.9 L 248.8,203.4 L 256.1,207.8 L 263.5,212.1 L 270.8,216.3 L 278.1,220.4 L 285.5,224.4 L 292.9,228.3 L 300.2,232.2 L 307.6,236.0 L 314.9,239.7 L 322.2,243.3 L 329.6,246.8 L 336.9,250.2 L 344.3,253.6 L 351.7,256.9 L 359.0,260.1 L 366.3,263.2 L 373.7,266.2 L 381.1,269.2 L 388.4,272.1 L 395.8,274.9 L 403.1,277.6 L 410.4,280.3 L 417.8,282.9 L 425.1,285.4 L 432.5,287.8 L 439.9,290.2 L 447.2,292.5 L 454.6,294.7 L 461.9,296.9 L 469.3,299.0 L 476.6,301.0 L 483.9,302.9 L 491.3,304.8 L 498.6,306.6 L 506.0,308.4 L 513.3,310.1 L 520.7,311.7 L 528.0,313.3 L 535.4,314.8 L 542.8,316.2 L 550.1,317.6 L 557.5,318.9 L 564.8,320.2 L 572.1,321.4 L 579.5,322.5 L 586.9,323.6 L 594.2,324.6 L 601.5,325.6 L 608.9,326.5 L 616.2,327.4 L 623.6,328.2 L 631.0,329.0 L 638.3,329.7 L 645.6,330.4 L 653.0,331.0 L 660.4,331.6 L 667.7,332.2 L 675.0,332.7 L 682.4,333.1 L 689.8,333.5 L 697.1,333.9 L 704.5,334.3 L 711.8,334.6 L 719.1,334.8 L 726.5,335.0 L 733.9,335.2 L 741.2,335.4 L 748.6,335.6 L 755.9,335.7 L 763.2,335.8 L 770.6,335.8 L 777.9,335.9 L 785.3,335.9 L 792.6,335.9 L 800.0,335.9 L 800.0,365.0 Z" fill="#ef5350" opacity="0.08"/>
  <path d="M 65.0,63.9 L 72.3,70.7 L 79.7,77.3 L 87.0,83.9 L 94.4,90.3 L 101.8,96.6 L 109.1,102.9 L 116.5,109.0 L 123.8,115.1 L 131.1,121.0 L 138.5,126.9 L 145.8,132.7 L 153.2,138.3 L 160.6,143.9 L 167.9,149.4 L 175.2,154.7 L 182.6,160.0 L 189.9,165.2 L 197.3,170.3 L 204.7,175.3 L 212.0,180.2 L 219.3,185.0 L 226.7,189.8 L 234.1,194.4 L 241.4,198.9 L 248.8,203.4 L 256.1,207.8 L 263.5,212.1 L 270.8,216.3 L 278.1,220.4 L 285.5,224.4 L 292.9,228.3 L 300.2,232.2 L 307.6,236.0 L 314.9,239.7 L 322.2,243.3 L 329.6,246.8 L 336.9,250.2 L 344.3,253.6 L 351.7,256.9 L 359.0,260.1 L 366.3,263.2 L 373.7,266.2 L 381.1,269.2 L 388.4,272.1 L 395.8,274.9 L 403.1,277.6 L 410.4,280.3 L 417.8,282.9 L 425.1,285.4 L 432.5,287.8 L 439.9,290.2 L 447.2,292.5 L 454.6,294.7 L 461.9,296.9 L 469.3,299.0 L 476.6,301.0 L 483.9,302.9 L 491.3,304.8 L 498.6,306.6 L 506.0,308.4 L 513.3,310.1 L 520.7,311.7 L 528.0,313.3 L 535.4,314.8 L 542.8,316.2 L 550.1,317.6 L 557.5,318.9 L 564.8,320.2 L 572.1,321.4 L 579.5,322.5 L 586.9,323.6 L 594.2,324.6 L 601.5,325.6 L 608.9,326.5 L 616.2,327.4 L 623.6,328.2 L 631.0,329.0 L 638.3,329.7 L 645.6,330.4 L 653.0,331.0 L 660.4,331.6 L 667.7,332.2 L 675.0,332.7 L 682.4,333.1 L 689.8,333.5 L 697.1,333.9 L 704.5,334.3 L 711.8,334.6 L 719.1,334.8 L 726.5,335.0 L 733.9,335.2 L 741.2,335.4 L 748.6,335.6 L 755.9,335.7 L 763.2,335.8 L 770.6,335.8 L 777.9,335.9 L 785.3,335.9 L 792.6,335.9 L 800.0,335.9" fill="none" stroke="#ef5350" stroke-width="2.5" stroke-linecap="round" stroke-linejoin="round"/>
  <circle cx="65.0" cy="63.9" r="3.5" class="value-dot" stroke="#1a1a2e" stroke-width="1.5"/>
  <text x="73.0" y="53.9" text-anchor="start" class="milestone">99.3% — Perfect clarity</text>
  <circle cx="138.5" cy="127.0" r="3.5" class="value-dot" stroke="#1a1a2e" stroke-width="1.5"/>
  <text x="146.5" y="117.0" text-anchor="start" class="milestone">97.2% — Barely noticeable drop</text>
  <circle cx="212.0" cy="180.3" r="3.5" class="value-dot" stroke="#1a1a2e" stroke-width="1.5"/>
  <text x="220.0" y="170.3" text-anchor="start" class="milestone">95.3% — World speeding up</text>
  <circle cx="285.5" cy="224.5" r="3.5" class="value-dot" stroke="#1a1a2e" stroke-width="1.5"/>
  <text x="293.5" y="214.5" text-anchor="start" class="milestone">93.8% — Feels it slipping</text>
  <circle cx="432.5" cy="287.9" r="3.5" class="value-dot" stroke="#1a1a2e" stroke-width="1.5"/>
  <text x="440.5" y="279.9" text-anchor="start" class="milestone">91.7% — Half the range gone</text>
  <circle cx="579.5" cy="322.5" r="3.5" class="value-dot" stroke="#1a1a2e" stroke-width="1.5"/>
  <text x="571.5" y="314.5" text-anchor="end" class="milestone">90.5% — Approaching baseline</text>
  <circle cx="726.5" cy="335.0" r="3.5" class="value-dot" stroke="#1a1a2e" stroke-width="1.5"/>
  <text x="718.5" y="325.0" text-anchor="end" class="milestone">90.0% — The end is close</text>
  <circle cx="800.0" cy="335.9" r="3.5" class="value-dot" stroke="#1a1a2e" stroke-width="1.5"/>
  <text x="792.0" y="351.9" text-anchor="end" class="milestone">90.0% — Death</text>
</svg>