<svg xmlns="http://www.w3.org/2000/svg" viewBox="0 0 820 420" font-family="Consolas, monospace">
  <defs>
    <style>
      .axis-label { font-size: 11px; fill: #b0bec5; }
      .title { font-size: 14px; fill: #eceff1; font-weight: bold; }
      .grid { stroke: #37474f; stroke-width: 0.5; }
      .axis { stroke: #607d8b; stroke-width: 1.5; }
      .phase-label { font-size: 10px; fill: #b0bec5; }
      .phase-value { font-size: 10px; fill: #eceff1; font-weight: bold; }
      .event-label { font-size: 9px; fill: #ffab91; }
    </style>
  </defs>
  <rect width="820" height="420" rx="8" fill="#1a1a2e"/>
  <text x="410" y="28" text-anchor="middle" class="title">Last Breath — Phase Timeline (Stage 6)</text>
  <line x1="65" y1="355.0" x2="800" y2="355.0" class="grid"/>
  <text x="60" y="359.0" text-anchor="end" class="axis-label">89%</text>
  <line x1="65" y1="326.8" x2="800" y2="326.8" class="grid"/>
  <text x="60" y="330.8" text-anchor="end" class="axis-label">90%</text>
  <line x1="65" y1="298.6" x2="800" y2="298.6" class="grid"/>
  <text x="60" y="302.6" text-anchor="end" class="axis-label">91%</text>
  <line x1="65" y1="270.5" x2="800" y2="270.5" class="grid"/>
  <text x="60" y="274.5" text-anchor="end" class="axis-label">92%</text>
  <line x1="65" y1="242.3" x2="800" y2="242.3" class="grid"/>
  <text x="60" y="246.3" text-anchor="end" class="axis-label">93%</text>
  <line x1="65" y1="214.1" x2="800" y2="214.1" class="grid"/>
  <text x="60" y="218.1" text-anchor="end" class="axis-label">94%</text>
  <line x1="65" y1="185.9" x2="800" y2="185.9" class="grid"/>
  <text x="60" y="189.9" text-anchor="end" class="axis-label">95%</text>
  <line x1="65" y1="157.7" x2="800" y2="157.7" class="grid"/>
  <text x="60" y="161.7" text-anchor="end" class="axis-label">96%</text>
  <line x1="65" y1="129.5" x2="800" y2="129.5" class="grid"/>
  <text x="60" y="133.5" text-anchor="end" class="axis-label">97%</text>
  <line x1="65" y1="101.4" x2="800" y2="101.4" class="grid"/>
  <text x="60" y="105.4" text-anchor="end" class="axis-label">98%</text>
  <line x1="65" y1="73.2" x2="800" y2="73.2" class="grid"/>
  <text x="60" y="77.2" text-anchor="end" class="axis-label">99%</text>
  <line x1="65" y1="45.0" x2="800" y2="45.0" class="grid"/>
  <text x="60" y="49.0" text-anchor="end" class="axis-label">100%</text>
  <line x1="65.0" y1="45" x2="65.0" y2="355" class="grid"/>
  <text x="65.0" y="373" text-anchor="middle" class="axis-label">0s</text>
  <line x1="80.0" y1="45" x2="80.0" y2="355" class="grid"/>
  <text x="80.0" y="373" text-anchor="middle" class="axis-label">5s</text>
  <line x1="95.0" y1="45" x2="95.0" y2="355" class="grid"/>
  <text x="95.0" y="373" text-anchor="middle" class="axis-label">10s</text>
  <line x1="125.0" y1="45" x2="125.0" y2="355" class="grid"/>
  <text x="125.0" y="373" text-anchor="middle" class="axis-label">20s</text>
  <line x1="215.0" y1="45" x2="215.0" y2="355" class="grid"/>
  <text x="215.0" y="373" text-anchor="middle" class="axis-label">50s</text>
  <line x1="290.0" y1="45" x2="290.0" y2="355" class="grid"/>
  <text x="290.0" y="373" text-anchor="middle" class="axis-label">75s</text>
  <line x1="365.0" y1="45" x2="365.0" y2="355" class="grid"/>
  <text x="365.0" y="373" text-anchor="middle" class="axis-label">100s</text>
  <line x1="440.0" y1="45" x2="440.0" y2="355" class="grid"/>
  <text x="440.0" y="373" text-anchor="middle" class="axis-label">125s</text>
  <line x1="515.0" y1="45" x2="515.0" y2="355" class="grid"/>
  <text x="515.0" y="373" text-anchor="middle" class="axis-label">150s</text>
  <line x1="590.0" y1="45" x2="590.0" y2="355" class="grid"/>
  <text x="590.0" y="373" text-anchor="middle" class="axis-label">175s</text>
  <line x1="665.0" y1="45" x2="665.0" y2="355" class="grid"/>
  <text x="665.0" y="373" text-anchor="middle" class="axis-label">200s</text>
  <line x1="740.0" y1="45" x2="740.0" y2="355" class="grid"/>
  <text x="740.0" y="373" text-anchor="middle" class="axis-label">225s</text>
  <line x1="800.0" y1="45" x2="800.0" y2="355" class="grid"/>
  <text x="800.0" y="373" text-anchor="middle" class="axis-label">245s</text>
  <line x1="65" y1="45" x2="65" y2="355" class="axis"/>
  <line x1="65" y1="355" x2="800" y2="355" class="axis"/>
  <text x="432.5" y="412" text-anchor="middle" class="axis-label">Time (seconds)</text>
  <text x="15" y="200.0" text-anchor="middle" class="axis-label" transform="rotate(-90, 15, 200.0)">Dilation %</text>
  <rect x="65.0" y="45" width="15.0" height="310" fill="#1b3a4b" opacity="0.3"/>
  <text x="72.5" y="390" text-anchor="middle" class="phase-label">WAIT</text>
  <rect x="80.0" y="45" width="15.0" height="310" fill="#1b4b3a" opacity="0.3"/>
  <text x="87.5" y="390" text-anchor="middle" class="phase-label">RAMP</text>
  <rect x="95.0" y="45" width="30.0" height="310" fill="#4b3a1b" opacity="0.3"/>
  <text x="110.0" y="390" text-anchor="middle" class="phase-label">PEAK</text>
  <rect x="125.0" y="45" width="675.0" height="310" fill="#4b1b1b" opacity="0.3"/>
  <text x="462.5" y="390" text-anchor="middle" class="phase-label">DECAY (~225s, exp 2.5)</text>
  <path d="M 65.0,326.8 L 68.0,326.8 L 71.0,326.8 L 74.0,326.8 L 77.0,326.8 L 80.0,326.8 L 80.5,318.0 L 81.0,309.3 L 81.5,300.5 L 82.0,291.7 L 82.5,282.9 L 83.0,274.1 L 83.5,265.3 L 84.0,256.6 L 84.5,247.8 L 85.0,239.0 L 85.5,230.2 L 86.0,221.4 L 86.5,212.6 L 87.0,203.9 L 87.5,195.1 L 88.0,186.3 L 88.5,177.5 L 89.0,168.7 L 89.5,159.9 L 90.0,151.2 L 90.5,142.4 L 91.0,133.6 L 91.5,124.8 L 92.0,116.0 L 92.5,107.2 L 93.0,98.5 L 93.5,89.7 L 94.0,80.9 L 94.5,72.1 L 95.0,63.3 L 98.0,63.3 L 101.0,63.3 L 104.0,63.3 L 107.0,63.3 L 110.0,63.3 L 113.0,63.3 L 116.0,63.3 L 119.0,63.3 L 122.0,63.3 L 125.0,63.3 L 128.0,66.2 L 131.0,69.1 L 134.0,72.0 L 137.0,74.9 L 140.0,77.7 L 143.0,80.5 L 146.0,83.3 L 149.0,86.1 L 152.0,88.9 L 155.0,91.6 L 158.0,94.4 L 161.0,97.1 L 164.0,99.7 L 167.0,102.4 L 170.0,105.1 L 173.0,107.7 L 176.0,110.3 L 179.0,112.9 L 182.0,115.5 L 185.0,118.0 L 188.0,120.6 L 191.0,123.1 L 194.0,125.6 L 197.0,128.1 L 200.0,130.5 L 203.0,133.0 L 206.0,135.4 L 209.0,137.8 L 212.0,140.2 L 215.0,142.6 L 218.0,144.9 L 221.0,147.3 L 224.0,149.6 L 227.0,151.9 L 230.0,154.2 L 233.0,156.4 L 236.0,158.7 L 239.0,160.9 L 242.0,163.1 L 245.0,165.3 L 248.0,167.5 L 251.0,169.6 L 254.0,171.8 L 257.0,173.9 L 260.0,176.0 L 263.0,178.1 L 266.0,180.1 L 269.0,182.2 L 272.0,184.2 L 275.0,186.2 L 278.0,188.2 L 281.0,190.2 L 284.0,192.2 L 287.0,194.1 L 290.0,196.1 L 293.0,198.0 L 296.0,199.9 L 299.0,201.8 L 302.0,203.6 L 305.0,205.5 L 308.0,207.3 L 311.0,209.1 L 314.0,210.9 L 317.0,212.7 L 320.0,214.5 L 323.0,216.2 L 326.0,217.9 L 329.0,219.6 L 332.0,221.3 L 335.0,223.0 L 338.0,224.7 L 341.0,226.3 L 344.0,228.0 L 347.0,229.6 L 350.0,231.2 L 353.0,232.8 L 356.0,234.4 L 359.0,235.9 L 362.0,237.4 L 365.0,239.0 L 368.0,240.5 L 371.0,242.0 L 374.0,243.4 L 377.0,244.9 L 380.0,246.3 L 383.0,247.8 L 386.0,249.2 L 389.0,250.6 L 392.0,252.0 L 395.0,253.3 L 398.0,254.7 L 401.0,256.0 L 404.0,257.4 L 407.0,258.7 L 410.0,260.0 L 413.0,261.2 L 416.0,262.5 L 419.0,263.7 L 422.0,265.0 L 425.0,266.2 L 428.0,267.4 L 431.0,268.6 L 434.0,269.8 L 437.0,270.9 L 440.0,272.1 L 443.0,273.2 L 446.0,274.3 L 449.0,275.4 L 452.0,276.5 L 455.0,277.6 L 458.0,278.7 L 461.0,279.7 L 464.0,280.8 L 467.0,281.8 L 470.0,282.8 L 473.0,283.8 L 476.0,284.8 L 479.0,285.7 L 482.0,286.7 L 485.0,287.6 L 488.0,288.5 L 491.0,289.5 L 494.0,290.4 L 497.0,291.2 L 500.0,292.1 L 503.0,293.0 L 506.0,293.8 L 509.0,294.7 L 512.0,295.5 L 515.0,296.3 L 518.0,297.1 L 521.0,297.9 L 524.0,298.6 L 527.0,299.4 L 530.0,300.2 L 533.0,300.9 L 536.0,301.6 L 539.0,302.3 L 542.0,303.0 L 545.0,303.7 L 548.0,304.4 L 551.0,305.0 L 554.0,305.7 L 557.0,306.3 L 560.0,307.0 L 563.0,307.6 L 566.0,308.2 L 569.0,308.8 L 572.0,309.3 L 575.0,309.9 L 578.0,310.5 L 581.0,311.0 L 584.0,311.6 L 587.0,312.1 L 590.0,312.6 L 593.0,313.1 L 596.0,313.6 L 599.0,314.1 L 602.0,314.5 L 605.0,315.0 L 608.0,315.4 L 611.0,315.9 L 614.0,316.3 L 617.0,316.7 L 620.0,317.1 L 623.0,317.5 L 626.0,317.9 L 629.0,318.3 L 632.0,318.7 L 635.0,319.0 L 638.0,319.4 L 641.0,319.7 L 644.0,320.1 L 647.0,320.4 L 650.0,320.7 L 653.0,321.0 L 656.0,321.3 L 659.0,321.6 L 662.0,321.8 L 665.0,322.1 L 668.0,322.4 L 671.0,322.6 L 674.0,322.9 L 677.0,323.1 L 680.0,323.3 L 683.0,323.5 L 686.0,323.7 L 689.0,323.9 L 692.0,324.1 L 695.0,324.3 L 698.0,324.5 L 701.0,324.6 L 704.0,324.8 L 707.0,325.0 L 710.0,325.1 L 713.0,325.2 L 716.0,325.4 L 719.0,325.5 L 722.0,325.6 L 725.0,325.7 L 728.0,325.8 L 731.0,325.9 L 734.0,326.0 L 737.0,326.1 L 740.0,326.2 L 743.0,326.3 L 746.0,326.3 L 749.0,326.4 L 752.0,326.5 L 755.0,326.5 L 758.0,326.6 L 761.0,326.6 L 764.0,326.6 L 767.0,326.7 L 770.0,326.7 L 773.0,326.7 L 776.0,326.8 L 779.0,326.8 L 782.0,326.8 L 785.0,326.8 L 788.0,326.8 L 791.0,326.8 L 794.0,326.8 L 797.0,326.8 L 800.0,326.8" fill="none" stroke="#ef5350" stroke-width="2.5" stroke-linecap="round" stroke-linejoin="round"/>
  <circle cx="74.0" cy="326.8" r="4" fill="#ffab91" stroke="#1a1a2e" stroke-width="1.5"/>
  <text x="74.0" y="314.8" text-anchor="middle" class="event-label">Song starts</text>
  <circle cx="80.0" cy="326.8" r="4" fill="#ffab91" stroke="#1a1a2e" stroke-width="1.5"/>
  <text x="98.0" y="324.8" text-anchor="start" class="event-label">Sandy activates</text>
  <circle cx="95.0" cy="63.3" r="4" fill="#ffab91" stroke="#1a1a2e" stroke-width="1.5"/>
  <text x="103.0" y="75.3" text-anchor="start" class="event-label">Peak begins</text>
  <circle cx="125.0" cy="63.3" r="4" fill="#ffab91" stroke="#1a1a2e" stroke-width="1.5"/>
  <text x="133.0" y="75.3" text-anchor="start" class="event-label">Decay starts</text>
  <text x="110.0" y="55.3" text-anchor="middle" class="phase-value" style="fill:#ef5350;">99.35%</text>
  <line x1="800.0" y1="45" x2="800.0" y2="355" stroke="#ef5350" stroke-width="1" stroke-dasharray="4,3" opacity="0.7"/>
  <text x="800.0" y="40.0" text-anchor="middle" class="event-label" style="font-size:10px;">FLATLINED (t=245s)</text>
</svg>
