<svg xmlns="http://www.w3.org/2000/svg" viewBox="0 0 900 350" font-family="Consolas, monospace">
  <defs><style>
    .al { font-size: 11px; fill: #b0bec5; }
    .tl { font-size: 14px; fill: #eceff1; font-weight: bold; }
    .vl { font-size: 8px; fill: #ffab91; }
    .sec { font-size: 8px; fill: #78909c; }
  </style></defs>
  <rect width="900" height="350" rx="8" fill="#1a1a2e"/>
  <text x="450" y="28" text-anchor="middle" class="tl">Last Breath — Tremor Intensity</text>
  <line x1="65" y1="295.0" x2="880" y2="295.0" stroke="#37474f" stroke-width="0.5"/>
  <text x="60" y="299.0" text-anchor="end" class="al">0.000</text>
  <line x1="65" y1="248.1" x2="880" y2="248.1" stroke="#37474f" stroke-width="0.5"/>
  <text x="60" y="252.1" text-anchor="end" class="al">0.003</text>
  <line x1="65" y1="216.9" x2="880" y2="216.9" stroke="#37474f" stroke-width="0.5"/>
  <text x="60" y="220.9" text-anchor="end" class="al">0.005</text>
  <line x1="65" y1="201.2" x2="880" y2="201.2" stroke="#37474f" stroke-width="0.5"/>
  <text x="60" y="205.2" text-anchor="end" class="al">0.006</text>
  <line x1="65" y1="138.8" x2="880" y2="138.8" stroke="#37474f" stroke-width="0.5"/>
  <text x="60" y="142.8" text-anchor="end" class="al">0.010</text>
  <line x1="65" y1="107.5" x2="880" y2="107.5" stroke="#37474f" stroke-width="0.5"/>
  <text x="60" y="111.5" text-anchor="end" class="al">0.012</text>
  <line x1="65" y1="60.6" x2="880" y2="60.6" stroke="#37474f" stroke-width="0.5"/>
  <text x="60" y="64.6" text-anchor="end" class="al">0.015</text>
  <line x1="65.0" y1="45" x2="65.0" y2="295" stroke="#37474f" stroke-width="0.5"/>
  <text x="65.0" y="311" text-anchor="middle" class="al">0s</text>
  <line x1="179.1" y1="45" x2="179.1" y2="295" stroke="#37474f" stroke-width="0.5"/>
  <text x="179.1" y="311" text-anchor="middle" class="al">35s</text>
  <line x1="254.1" y1="45" x2="254.1" y2="295" stroke="#37474f" stroke-width="0.5"/>
  <text x="254.1" y="311" text-anchor="middle" class="al">58s</text>
  <line x1="378.0" y1="45" x2="378.0" y2="295" stroke="#37474f" stroke-width="0.5"/>
  <text x="378.0" y="311" text-anchor="middle" class="al">96s</text>
  <line x1="475.8" y1="45" x2="475.8" y2="295" stroke="#37474f" stroke-width="0.5"/>
  <text x="475.8" y="311" text-anchor="middle" class="al">126s</text>
  <line x1="550.7" y1="45" x2="550.7" y2="295" stroke="#37474f" stroke-width="0.5"/>
  <text x="550.7" y="311" text-anchor="middle" class="al">149s</text>
  <line x1="622.5" y1="45" x2="622.5" y2="295" stroke="#37474f" stroke-width="0.5"/>
  <text x="622.5" y="311" text-anchor="middle" class="al">171s</text>
  <line x1="674.6" y1="45" x2="674.6" y2="295" stroke="#37474f" stroke-width="0.5"/>
  <text x="674.6" y="311" text-anchor="middle" class="al">187s</text>
  <line x1="726.8" y1="45" x2="726.8" y2="295" stroke="#37474f" stroke-width="0.5"/>
  <text x="726.8" y="311" text-anchor="middle" class="al">203s</text>
  <line x1="785.5" y1="45" x2="785.5" y2="295" stroke="#37474f" stroke-width="0.5"/>
  <text x="785.5" y="311" text-anchor="middle" class="al">221s</text>
  <line x1="818.1" y1="45" x2="818.1" y2="295" stroke="#37474f" stroke-width="0.5"/>
  <text x="818.1" y="311" text-anchor="middle" class="al">231s</text>
  <line x1="863.7" y1="45" x2="863.7" y2="295" stroke="#37474f" stroke-width="0.5"/>
  <text x="863.7" y="311" text-anchor="middle" class="al">245s</text>
  <line x1="65" y1="45" x2="65" y2="295" stroke="#607d8b" stroke-width="1.5"/>
  <line x1="65" y1="295" x2="880" y2="295" stroke="#607d8b" stroke-width="1.5"/>
  <text x="472" y="342" text-anchor="middle" class="al">Mod Time (seconds)</text>
  <text x="12" y="170" text-anchor="middle" class="al" transform="rotate(-90,12,170)">Intensity</text>
  <path d="M 65.0,295.0 L 65.0,295.0 L 179.1,295.0 L 179.1,248.1 L 254.1,248.1 L 254.1,201.2 L 378.0,201.2 L 378.0,248.1 L 475.8,248.1 L 475.8,216.9 L 550.7,216.9 L 550.7,138.8 L 622.5,138.8 L 622.5,295.0 L 674.6,295.0 L 674.6,201.2 L 726.8,107.5 L 726.8,60.6 L 785.5,60.6 L 818.1,295.0 L 863.7,295.0 L 863.7,295.0 Z" fill="#ffb74d" opacity="0.12"/>
  <path d="M 65.0,295.0 L 179.1,295.0 L 179.1,248.1 L 254.1,248.1 L 254.1,201.2 L 378.0,201.2 L 378.0,248.1 L 475.8,248.1 L 475.8,216.9 L 550.7,216.9 L 550.7,138.8 L 622.5,138.8 L 622.5,295.0 L 674.6,295.0 L 674.6,201.2 L 726.8,107.5 L 726.8,60.6 L 785.5,60.6 L 818.1,295.0 L 863.7,295.0" fill="none" stroke="#ffb74d" stroke-width="2" stroke-linecap="round" stroke-linejoin="round"/>
  <rect x="622.5" y="45" width="52.2" height="250" fill="#ce93d8" opacity="0.1"/>
  <text x="648.5" y="60" text-anchor="middle" class="vl" style="fill:#ce93d8;">CLARITY</text>
  <circle cx="179.1" cy="248.1" r="3" fill="#ffb74d" stroke="#1a1a2e" stroke-width="1"/>
  <circle cx="254.1" cy="201.2" r="3" fill="#ffb74d" stroke="#1a1a2e" stroke-width="1"/>
  <circle cx="378.0" cy="248.1" r="3" fill="#ffb74d" stroke="#1a1a2e" stroke-width="1"/>
  <circle cx="475.8" cy="216.9" r="3" fill="#ffb74d" stroke="#1a1a2e" stroke-width="1"/>
  <circle cx="550.7" cy="138.8" r="3" fill="#ffb74d" stroke="#1a1a2e" stroke-width="1"/>
  <circle cx="726.8" cy="60.6" r="3" fill="#ffb74d" stroke="#1a1a2e" stroke-width="1"/>
  <text x="254.1" y="325" text-anchor="middle" class="sec" style="fill:#fff176">CH1</text>
  <text x="378.0" y="325" text-anchor="middle" class="sec" style="fill:#4fc3f7">V2</text>
  <text x="475.8" y="325" text-anchor="middle" class="sec" style="fill:#81c784">PC2</text>
  <text x="550.7" y="325" text-anchor="middle" class="sec" style="fill:#ffb74d">CH2</text>
  <text x="622.5" y="325" text-anchor="middle" class="sec" style="fill:#ce93d8">BRG</text>
  <text x="674.6" y="325" text-anchor="middle" class="sec" style="fill:#81c784">PC3</text>
  <text x="726.8" y="325" text-anchor="middle" class="sec" style="fill:#ef5350">FIN</text>
  <text x="785.5" y="325" text-anchor="middle" class="sec" style="fill:#546e7a">OUT</text>
</svg>