<svg xmlns="http://www.w3.org/2000/svg" viewBox="0 0 900 380" font-family="Consolas, monospace">
  <defs><style>
    .al { font-size: 11px; fill: #b0bec5; }
    .tl { font-size: 14px; fill: #eceff1; font-weight: bold; }
    .ll { font-size: 10px; fill: #eceff1; }
    .sync { font-size: 8px; fill: #78909c; }
  </style></defs>
  <rect width="900" height="380" rx="8" fill="#1a1a2e"/>
  <text x="417" y="28" text-anchor="middle" class="tl">Song Energy vs Mod Intensity — Sync Points</text>
  <line x1="65.0" y1="45" x2="65.0" y2="325" stroke="#37474f" stroke-width="0.5"/>
  <text x="65.0" y="341" text-anchor="middle" class="al">0s</text>
  <line x1="228.6" y1="45" x2="228.6" y2="325" stroke="#37474f" stroke-width="0.5"/>
  <text x="228.6" y="341" text-anchor="middle" class="al">58s</text>
  <line x1="335.7" y1="45" x2="335.7" y2="325" stroke="#37474f" stroke-width="0.5"/>
  <text x="335.7" y="341" text-anchor="middle" class="al">96s</text>
  <line x1="420.3" y1="45" x2="420.3" y2="325" stroke="#37474f" stroke-width="0.5"/>
  <text x="420.3" y="341" text-anchor="middle" class="al">126s</text>
  <line x1="485.2" y1="45" x2="485.2" y2="325" stroke="#37474f" stroke-width="0.5"/>
  <text x="485.2" y="341" text-anchor="middle" class="al">149s</text>
  <line x1="547.2" y1="45" x2="547.2" y2="325" stroke="#37474f" stroke-width="0.5"/>
  <text x="547.2" y="341" text-anchor="middle" class="al">171s</text>
  <line x1="592.3" y1="45" x2="592.3" y2="325" stroke="#37474f" stroke-width="0.5"/>
  <text x="592.3" y="341" text-anchor="middle" class="al">187s</text>
  <line x1="637.5" y1="45" x2="637.5" y2="325" stroke="#37474f" stroke-width="0.5"/>
  <text x="637.5" y="341" text-anchor="middle" class="al">203s</text>
  <line x1="688.2" y1="45" x2="688.2" y2="325" stroke="#37474f" stroke-width="0.5"/>
  <text x="688.2" y="341" text-anchor="middle" class="al">221s</text>
  <line x1="755.9" y1="45" x2="755.9" y2="325" stroke="#37474f" stroke-width="0.5"/>
  <text x="755.9" y="341" text-anchor="middle" class="al">245s</text>
  <text x="417" y="372" text-anchor="middle" class="al">Mod Time (seconds)</text>
  <text x="60" y="49" text-anchor="end" class="al">10</text>
  <text x="60" y="184" text-anchor="end" class="al">0</text>
  <text x="60" y="194" text-anchor="end" class="al">10</text>
  <text x="60" y="329" text-anchor="end" class="al">0</text>
  <line x1="65" y1="185" x2="770" y2="185" stroke="#607d8b" stroke-width="1" stroke-dasharray="4,3"/>
  <text x="60" y="112" text-anchor="end" class="ll" transform="rotate(-90,40,112)">Song Energy</text>
  <text x="60" y="257" text-anchor="end" class="ll" transform="rotate(-90,40,257)">Mod Intensity</text>
  <path d="M 73.5,180.0 L 73.5,166.5 L 93.2,166.5 L 93.2,139.5 L 220.1,139.5 L 220.1,112.5 L 285.0,112.5 L 285.0,85.5 L 392.1,85.5 L 392.1,126.0 L 476.7,126.0 L 476.7,99.0 L 541.6,99.0 L 541.6,72.0 L 603.6,72.0 L 603.6,112.5 L 648.7,112.5 L 648.7,85.5 L 693.9,85.5 L 693.9,58.5 L 744.6,58.5 L 744.6,153.0 L 770.0,153.0 L 770.0,180.0 Z" fill="#4fc3f7" opacity="0.15"/>
  <path d="M 73.5,166.5 L 93.2,166.5 L 93.2,139.5 L 220.1,139.5 L 220.1,112.5 L 285.0,112.5 L 285.0,85.5 L 392.1,85.5 L 392.1,126.0 L 476.7,126.0 L 476.7,99.0 L 541.6,99.0 L 541.6,72.0 L 603.6,72.0 L 603.6,112.5 L 648.7,112.5 L 648.7,85.5 L 693.9,85.5 L 693.9,58.5 L 744.6,58.5 L 744.6,153.0 L 770.0,153.0" fill="none" stroke="#4fc3f7" stroke-width="2" stroke-linecap="round" stroke-linejoin="round"/>
  <path d="M 65.0,325.0 L 65.0,325.0 L 163.7,325.0 L 163.7,298.0 L 228.6,298.0 L 228.6,244.0 L 335.7,244.0 L 335.7,325.0 L 420.3,325.0 L 420.3,257.5 L 485.2,257.5 L 485.2,230.5 L 547.2,230.5 L 547.2,325.0 L 592.3,325.0 L 592.3,244.0 L 637.5,217.0 L 637.5,190.0 L 688.2,190.0 L 688.2,311.5 L 716.4,325.0 L 755.9,325.0 L 755.9,325.0 Z" fill="#ef5350" opacity="0.15"/>
  <path d="M 65.0,325.0 L 163.7,325.0 L 163.7,298.0 L 228.6,298.0 L 228.6,244.0 L 335.7,244.0 L 335.7,325.0 L 420.3,325.0 L 420.3,257.5 L 485.2,257.5 L 485.2,230.5 L 547.2,230.5 L 547.2,325.0 L 592.3,325.0 L 592.3,244.0 L 637.5,217.0 L 637.5,190.0 L 688.2,190.0 L 688.2,311.5 L 716.4,325.0 L 755.9,325.0" fill="none" stroke="#ef5350" stroke-width="2" stroke-linecap="round" stroke-linejoin="round"/>
  <line x1="228.6" y1="45" x2="228.6" y2="325" stroke="#ffab91" stroke-width="1" stroke-dasharray="3,3" opacity="0.6"/>
  <line x1="335.7" y1="45" x2="335.7" y2="325" stroke="#ffab91" stroke-width="1" stroke-dasharray="3,3" opacity="0.6"/>
  <line x1="485.2" y1="45" x2="485.2" y2="325" stroke="#ffab91" stroke-width="1" stroke-dasharray="3,3" opacity="0.6"/>
  <line x1="547.2" y1="45" x2="547.2" y2="325" stroke="#ffab91" stroke-width="1" stroke-dasharray="3,3" opacity="0.6"/>
  <line x1="637.5" y1="45" x2="637.5" y2="325" stroke="#ffab91" stroke-width="1" stroke-dasharray="3,3" opacity="0.6"/>
  <line x1="688.2" y1="45" x2="688.2" y2="325" stroke="#ffab91" stroke-width="1" stroke-dasharray="3,3" opacity="0.6"/>
  <rect x="780" y="45" width="120" height="280" rx="4" fill="#16213e" stroke="#37474f" stroke-width="1"/>
  <text x="840" y="61" text-anchor="middle" class="ll">Sync Points</text>
  <text x="788" y="75" class="sync" style="fill:#ffab91;">58s</text>
  <text x="788" y="87" class="sync">CH1 drop</text>
  <text x="788" y="99" class="sync">First TTB+BW</text>
  <text x="788" y="121" class="sync" style="fill:#ffab91;">96s</text>
  <text x="788" y="133" class="sync">V2 calm</text>
  <text x="788" y="145" class="sync">Effects pause</text>
  <text x="788" y="167" class="sync" style="fill:#ffab91;">149s</text>
  <text x="788" y="179" class="sync">CH2</text>
  <text x="788" y="191" class="sync">Dual TTB+BW</text>
  <text x="788" y="213" class="sync" style="fill:#ffab91;">171s</text>
  <text x="788" y="225" class="sync">Bridge</text>
  <text x="788" y="237" class="sync">Clarity</text>
  <text x="788" y="259" class="sync" style="fill:#ffab91;">203s</text>
  <text x="788" y="271" class="sync">Final CH</text>
  <text x="788" y="283" class="sync">Peak Burst</text>
  <text x="788" y="305" class="sync" style="fill:#ffab91;">221s</text>
  <text x="788" y="317" class="sync">Outro</text>
  <text x="788" y="329" class="sync">Effects stop</text>
</svg>