<svg xmlns="http://www.w3.org/2000/svg" viewBox="0 0 900 400" font-family="Consolas, monospace">
  <defs><style>
    .al { font-size: 11px; fill: #b0bec5; }
    .tl { font-size: 14px; fill: #eceff1; font-weight: bold; }
    .ev { font-size: 8px; fill: #ffab91; }
    .sec { font-size: 8px; fill: #78909c; }
  </style></defs>
  <rect width="900" height="400" rx="8" fill="#1a1a2e"/>
  <text x="450" y="28" text-anchor="middle" class="tl">Last Breath — Time Dilation Over Mod Time</text>
  <line x1="65" y1="345.0" x2="880" y2="345.0" stroke="#37474f" stroke-width="0.5"/>
  <text x="60" y="349.0" text-anchor="end" class="al">89%</text>
  <line x1="65" y1="317.7" x2="880" y2="317.7" stroke="#37474f" stroke-width="0.5"/>
  <text x="60" y="321.7" text-anchor="end" class="al">90%</text>
  <line x1="65" y1="290.5" x2="880" y2="290.5" stroke="#37474f" stroke-width="0.5"/>
  <text x="60" y="294.5" text-anchor="end" class="al">91%</text>
  <line x1="65" y1="263.2" x2="880" y2="263.2" stroke="#37474f" stroke-width="0.5"/>
  <text x="60" y="267.2" text-anchor="end" class="al">92%</text>
  <line x1="65" y1="235.9" x2="880" y2="235.9" stroke="#37474f" stroke-width="0.5"/>
  <text x="60" y="239.9" text-anchor="end" class="al">93%</text>
  <line x1="65" y1="208.6" x2="880" y2="208.6" stroke="#37474f" stroke-width="0.5"/>
  <text x="60" y="212.6" text-anchor="end" class="al">94%</text>
  <line x1="65" y1="181.4" x2="880" y2="181.4" stroke="#37474f" stroke-width="0.5"/>
  <text x="60" y="185.4" text-anchor="end" class="al">95%</text>
  <line x1="65" y1="154.1" x2="880" y2="154.1" stroke="#37474f" stroke-width="0.5"/>
  <text x="60" y="158.1" text-anchor="end" class="al">96%</text>
  <line x1="65" y1="126.8" x2="880" y2="126.8" stroke="#37474f" stroke-width="0.5"/>
  <text x="60" y="130.8" text-anchor="end" class="al">97%</text>
  <line x1="65" y1="99.5" x2="880" y2="99.5" stroke="#37474f" stroke-width="0.5"/>
  <text x="60" y="103.5" text-anchor="end" class="al">98%</text>
  <line x1="65" y1="72.3" x2="880" y2="72.3" stroke="#37474f" stroke-width="0.5"/>
  <text x="60" y="76.3" text-anchor="end" class="al">99%</text>
  <line x1="65" y1="45.0" x2="880" y2="45.0" stroke="#37474f" stroke-width="0.5"/>
  <text x="60" y="49.0" text-anchor="end" class="al">100%</text>
  <line x1="65.0" y1="45" x2="65.0" y2="345" stroke="#37474f" stroke-width="0.5"/>
  <text x="65.0" y="361" text-anchor="middle" class="al">0s</text>
  <line x1="81.3" y1="45" x2="81.3" y2="345" stroke="#37474f" stroke-width="0.5"/>
  <text x="81.3" y="361" text-anchor="middle" class="al">5s</text>
  <line x1="97.6" y1="45" x2="97.6" y2="345" stroke="#37474f" stroke-width="0.5"/>
  <text x="97.6" y="361" text-anchor="middle" class="al">10s</text>
  <line x1="130.2" y1="45" x2="130.2" y2="345" stroke="#37474f" stroke-width="0.5"/>
  <text x="130.2" y="361" text-anchor="middle" class="al">20s</text>
  <line x1="254.1" y1="45" x2="254.1" y2="345" stroke="#37474f" stroke-width="0.5"/>
  <text x="254.1" y="361" text-anchor="middle" class="al">58s</text>
  <line x1="378.0" y1="45" x2="378.0" y2="345" stroke="#37474f" stroke-width="0.5"/>
  <text x="378.0" y="361" text-anchor="middle" class="al">96s</text>
  <line x1="475.8" y1="45" x2="475.8" y2="345" stroke="#37474f" stroke-width="0.5"/>
  <text x="475.8" y="361" text-anchor="middle" class="al">126s</text>
  <line x1="550.7" y1="45" x2="550.7" y2="345" stroke="#37474f" stroke-width="0.5"/>
  <text x="550.7" y="361" text-anchor="middle" class="al">149s</text>
  <line x1="622.5" y1="45" x2="622.5" y2="345" stroke="#37474f" stroke-width="0.5"/>
  <text x="622.5" y="361" text-anchor="middle" class="al">171s</text>
  <line x1="674.6" y1="45" x2="674.6" y2="345" stroke="#37474f" stroke-width="0.5"/>
  <text x="674.6" y="361" text-anchor="middle" class="al">187s</text>
  <line x1="726.8" y1="45" x2="726.8" y2="345" stroke="#37474f" stroke-width="0.5"/>
  <text x="726.8" y="361" text-anchor="middle" class="al">203s</text>
  <line x1="785.5" y1="45" x2="785.5" y2="345" stroke="#37474f" stroke-width="0.5"/>
  <text x="785.5" y="361" text-anchor="middle" class="al">221s</text>
  <line x1="863.7" y1="45" x2="863.7" y2="345" stroke="#37474f" stroke-width="0.5"/>
  <text x="863.7" y="361" text-anchor="middle" class="al">245s</text>
  <line x1="65" y1="45" x2="65" y2="345" stroke="#607d8b" stroke-width="1.5"/>
  <line x1="65" y1="345" x2="880" y2="345" stroke="#607d8b" stroke-width="1.5"/>
  <text x="472" y="392" text-anchor="middle" class="al">Mod Time (seconds)</text>
  <text x="12" y="195" text-anchor="middle" class="al" transform="rotate(-90,12,195)">Dilation %</text>
  <text x="254.1" y="375" text-anchor="middle" class="sec" style="fill:#fff176">CH1</text>
  <text x="378.0" y="375" text-anchor="middle" class="sec" style="fill:#4fc3f7">V2</text>
  <text x="475.8" y="375" text-anchor="middle" class="sec" style="fill:#81c784">PC2</text>
  <text x="550.7" y="375" text-anchor="middle" class="sec" style="fill:#ffb74d">CH2</text>
  <text x="622.5" y="375" text-anchor="middle" class="sec" style="fill:#ce93d8">BRG</text>
  <text x="674.6" y="375" text-anchor="middle" class="sec" style="fill:#81c784">PC3</text>
  <text x="726.8" y="375" text-anchor="middle" class="sec" style="fill:#ef5350">FIN</text>
  <text x="785.5" y="375" text-anchor="middle" class="sec" style="fill:#546e7a">OUT</text>
  <path d="M 65.0,317.7 L 65.3,317.7 L 65.7,317.7 L 66.0,317.7 L 66.3,317.7 L 66.6,317.7 L 67.0,317.7 L 67.3,317.7 L 67.6,317.7 L 67.9,317.7 L 68.3,317.7 L 68.6,317.7 L 68.9,317.7 L 69.2,317.7 L 69.6,317.7 L 69.9,317.7 L 70.2,317.7 L 70.5,317.7 L 70.9,317.7 L 71.2,317.7 L 71.5,317.7 L 71.8,317.7 L 72.2,317.7 L 72.5,317.7 L 72.8,317.7 L 73.2,317.7 L 73.5,317.7 L 73.8,317.7 L 74.1,317.7 L 74.5,317.7 L 74.8,317.7 L 75.1,317.7 L 75.4,317.7 L 75.8,317.7 L 76.1,317.7 L 76.4,317.7 L 76.7,317.7 L 77.1,317.7 L 77.4,317.7 L 77.7,317.7 L 78.0,317.7 L 78.4,317.7 L 78.7,317.7 L 79.0,317.7 L 79.3,317.7 L 79.7,317.7 L 80.0,317.7 L 80.3,317.7 L 80.6,317.7 L 81.0,317.7 L 81.3,317.7 L 81.3,317.7 L 81.6,317.4 L 82.0,316.5 L 82.3,315.1 L 82.6,313.1 L 82.9,310.6 L 83.3,307.6 L 83.6,304.1 L 83.9,300.2 L 84.2,295.9 L 84.6,291.2 L 84.9,286.1 L 85.2,280.7 L 85.5,275.0 L 85.9,268.9 L 86.2,262.6 L 86.5,256.1 L 86.8,249.3 L 87.2,242.4 L 87.5,235.2 L 87.8,228.0 L 88.1,220.6 L 88.5,213.1 L 88.8,205.5 L 89.1,197.9 L 89.5,190.2 L 89.8,182.6 L 90.1,175.0 L 90.4,167.4 L 90.8,159.9 L 91.1,152.5 L 91.4,145.2 L 91.7,138.1 L 92.1,131.1 L 92.4,124.4 L 92.7,117.8 L 93.0,111.5 L 93.4,105.5 L 93.7,99.7 L 94.0,94.3 L 94.3,89.2 L 94.7,84.5 L 95.0,80.2 L 95.3,76.3 L 95.6,72.9 L 96.0,69.9 L 96.3,67.4 L 96.6,65.4 L 96.9,63.9 L 97.3,63.0 L 97.6,62.7 L 97.6,62.7 L 97.9,62.7 L 98.3,62.7 L 98.6,62.7 L 98.9,62.7 L 99.2,62.7 L 99.6,62.7 L 99.9,62.7 L 100.2,62.7 L 100.5,62.7 L 100.9,62.7 L 101.2,62.7 L 101.5,62.7 L 101.8,62.7 L 102.2,62.7 L 102.5,62.7 L 102.8,62.7 L 103.1,62.7 L 103.5,62.7 L 103.8,62.7 L 104.1,62.7 L 104.4,62.7 L 104.8,62.7 L 105.1,62.7 L 105.4,62.7 L 105.8,62.7 L 106.1,62.7 L 106.4,62.7 L 106.7,62.7 L 107.1,62.7 L 107.4,62.7 L 107.7,62.7 L 108.0,62.7 L 108.4,62.7 L 108.7,62.7 L 109.0,62.7 L 109.3,62.7 L 109.7,62.7 L 110.0,62.7 L 110.3,62.7 L 110.6,62.7 L 111.0,62.7 L 111.3,62.7 L 111.6,62.7 L 111.9,62.7 L 112.3,62.7 L 112.6,62.7 L 112.9,62.7 L 113.2,62.7 L 113.6,62.7 L 113.9,62.7 L 114.2,62.7 L 114.6,62.7 L 114.9,62.7 L 115.2,62.7 L 115.5,62.7 L 115.9,62.7 L 116.2,62.7 L 116.5,62.7 L 116.8,62.7 L 117.2,62.7 L 117.5,62.7 L 117.8,62.7 L 118.1,62.7 L 118.5,62.7 L 118.8,62.7 L 119.1,62.7 L 119.4,62.7 L 119.8,62.7 L 120.1,62.7 L 120.4,62.7 L 120.7,62.7 L 121.1,62.7 L 121.4,62.7 L 121.7,62.7 L 122.1,62.7 L 122.4,62.7 L 122.7,62.7 L 123.0,62.7 L 123.4,62.7 L 123.7,62.7 L 124.0,62.7 L 124.3,62.7 L 124.7,62.7 L 125.0,62.7 L 125.3,62.7 L 125.6,62.7 L 126.0,62.7 L 126.3,62.7 L 126.6,62.7 L 126.9,62.7 L 127.3,62.7 L 127.6,62.7 L 127.9,62.7 L 128.2,62.7 L 128.6,62.7 L 128.9,62.7 L 129.2,62.7 L 129.5,62.7 L 129.9,62.7 L 130.2,62.7 L 130.2,62.7 L 130.5,63.0 L 130.9,63.3 L 131.2,63.6 L 131.5,63.8 L 131.8,64.1 L 132.2,64.4 L 132.5,64.7 L 132.8,64.9 L 133.1,65.2 L 133.5,65.5 L 133.8,65.8 L 134.1,66.0 L 134.4,66.3 L 134.8,66.6 L 135.1,66.9 L 135.4,67.1 L 135.7,67.4 L 136.1,67.7 L 136.4,68.0 L 136.7,68.2 L 137.0,68.5 L 137.4,68.8 L 137.7,69.1 L 138.0,69.3 L 138.3,69.6 L 138.7,69.9 L 139.0,70.1 L 139.3,70.4 L 139.7,70.7 L 140.0,71.0 L 140.3,71.2 L 140.6,71.5 L 141.0,71.8 L 141.3,72.0 L 141.6,72.3 L 141.9,72.6 L 142.3,72.9 L 142.6,73.1 L 142.9,73.4 L 143.2,73.7 L 143.6,73.9 L 143.9,74.2 L 144.2,74.5 L 144.5,74.7 L 144.9,75.0 L 145.2,75.3 L 145.5,75.6 L 145.8,75.8 L 146.2,76.1 L 146.5,76.4 L 146.8,76.6 L 147.2,76.9 L 147.5,77.2 L 147.8,77.4 L 148.1,77.7 L 148.5,78.0 L 148.8,78.2 L 149.1,78.5 L 149.4,78.8 L 149.8,79.0 L 150.1,79.3 L 150.4,79.6 L 150.7,79.8 L 151.1,80.1 L 151.4,80.4 L 151.7,80.6 L 152.0,80.9 L 152.4,81.2 L 152.7,81.4 L 153.0,81.7 L 153.3,82.0 L 153.7,82.2 L 154.0,82.5 L 154.3,82.7 L 154.7,83.0 L 155.0,83.3 L 155.3,83.5 L 155.6,83.8 L 156.0,84.1 L 156.3,84.3 L 156.6,84.6 L 156.9,84.9 L 157.3,85.1 L 157.6,85.4 L 157.9,85.6 L 158.2,85.9 L 158.6,86.2 L 158.9,86.4 L 159.2,86.7 L 159.5,86.9 L 159.9,87.2 L 160.2,87.5 L 160.5,87.7 L 160.8,88.0 L 161.2,88.2 L 161.5,88.5 L 161.8,88.8 L 162.1,89.0 L 162.5,89.3 L 162.8,89.5 L 163.1,89.8 L 163.5,90.1 L 163.8,90.3 L 164.1,90.6 L 164.4,90.8 L 164.8,91.1 L 165.1,91.4 L 165.4,91.6 L 165.7,91.9 L 166.1,92.1 L 166.4,92.4 L 166.7,92.6 L 167.0,92.9 L 167.4,93.2 L 167.7,93.4 L 168.0,93.7 L 168.3,93.9 L 168.7,94.2 L 169.0,94.4 L 169.3,94.7 L 169.6,95.0 L 170.0,95.2 L 170.3,95.5 L 170.6,95.7 L 170.9,96.0 L 171.3,96.2 L 171.6,96.5 L 171.9,96.7 L 172.3,97.0 L 172.6,97.2 L 172.9,97.5 L 173.2,97.8 L 173.6,98.0 L 173.9,98.3 L 174.2,98.5 L 174.5,98.8 L 174.9,99.0 L 175.2,99.3 L 175.5,99.5 L 175.8,99.8 L 176.2,100.0 L 176.5,100.3 L 176.8,100.5 L 177.1,100.8 L 177.5,101.0 L 177.8,101.3 L 178.1,101.5 L 178.4,101.8 L 178.8,102.0 L 179.1,102.3 L 179.4,102.5 L 179.8,102.8 L 180.1,103.0 L 180.4,103.3 L 180.7,103.5 L 181.1,103.8 L 181.4,104.0 L 181.7,104.3 L 182.0,104.5 L 182.4,104.8 L 182.7,105.0 L 183.0,105.3 L 183.3,105.5 L 183.7,105.8 L 184.0,106.0 L 184.3,106.3 L 184.6,106.5 L 185.0,106.8 L 185.3,107.0 L 185.6,107.3 L 185.9,107.5 L 186.3,107.8 L 186.6,108.0 L 186.9,108.3 L 187.2,108.5 L 187.6,108.7 L 187.9,109.0 L 188.2,109.2 L 188.6,109.5 L 188.9,109.7 L 189.2,110.0 L 189.5,110.2 L 189.9,110.5 L 190.2,110.7 L 190.5,111.0 L 190.8,111.2 L 191.2,111.4 L 191.5,111.7 L 191.8,111.9 L 192.1,112.2 L 192.5,112.4 L 192.8,112.7 L 193.1,112.9 L 193.4,113.1 L 193.8,113.4 L 194.1,113.6 L 194.4,113.9 L 194.7,114.1 L 195.1,114.4 L 195.4,114.6 L 195.7,114.8 L 196.1,115.1 L 196.4,115.3 L 196.7,115.6 L 197.0,115.8 L 197.4,116.0 L 197.7,116.3 L 198.0,116.5 L 198.3,116.8 L 198.7,117.0 L 199.0,117.2 L 199.3,117.5 L 199.6,117.7 L 200.0,118.0 L 200.3,118.2 L 200.6,118.4 L 200.9,118.7 L 201.3,118.9 L 201.6,119.2 L 201.9,119.4 L 202.2,119.6 L 202.6,119.9 L 202.9,120.1 L 203.2,120.4 L 203.6,120.6 L 203.9,120.8 L 204.2,121.1 L 204.5,121.3 L 204.9,121.5 L 205.2,121.8 L 205.5,122.0 L 205.8,122.2 L 206.2,122.5 L 206.5,122.7 L 206.8,123.0 L 207.1,123.2 L 207.5,123.4 L 207.8,123.7 L 208.1,123.9 L 208.4,124.1 L 208.8,124.4 L 209.1,124.6 L 209.4,124.8 L 209.7,125.1 L 210.1,125.3 L 210.4,125.5 L 210.7,125.8 L 211.0,126.0 L 211.4,126.2 L 211.7,126.5 L 212.0,126.7 L 212.4,126.9 L 212.7,127.2 L 213.0,127.4 L 213.3,127.6 L 213.7,127.9 L 214.0,128.1 L 214.3,128.3 L 214.6,128.6 L 215.0,128.8 L 215.3,129.0 L 215.6,129.3 L 215.9,129.5 L 216.3,129.7 L 216.6,130.0 L 216.9,130.2 L 217.2,130.4 L 217.6,130.6 L 217.9,130.9 L 218.2,131.1 L 218.5,131.3 L 218.9,131.6 L 219.2,131.8 L 219.5,132.0 L 219.8,132.3 L 220.2,132.5 L 220.5,132.7 L 220.8,132.9 L 221.2,133.2 L 221.5,133.4 L 221.8,133.6 L 222.1,133.9 L 222.5,134.1 L 222.8,134.3 L 223.1,134.5 L 223.4,134.8 L 223.8,135.0 L 224.1,135.2 L 224.4,135.4 L 224.7,135.7 L 225.1,135.9 L 225.4,136.1 L 225.7,136.3 L 226.0,136.6 L 226.4,136.8 L 226.7,137.0 L 227.0,137.2 L 227.3,137.5 L 227.7,137.7 L 228.0,137.9 L 228.3,138.1 L 228.7,138.4 L 229.0,138.6 L 229.3,138.8 L 229.6,139.0 L 230.0,139.3 L 230.3,139.5 L 230.6,139.7 L 230.9,139.9 L 231.3,140.2 L 231.6,140.4 L 231.9,140.6 L 232.2,140.8 L 232.6,141.1 L 232.9,141.3 L 233.2,141.5 L 233.5,141.7 L 233.9,141.9 L 234.2,142.2 L 234.5,142.4 L 234.8,142.6 L 235.2,142.8 L 235.5,143.0 L 235.8,143.3 L 236.2,143.5 L 236.5,143.7 L 236.8,143.9 L 237.1,144.2 L 237.5,144.4 L 237.8,144.6 L 238.1,144.8 L 238.4,145.0 L 238.8,145.3 L 239.1,145.5 L 239.4,145.7 L 239.7,145.9 L 240.1,146.1 L 240.4,146.3 L 240.7,146.6 L 241.0,146.8 L 241.4,147.0 L 241.7,147.2 L 242.0,147.4 L 242.3,147.7 L 242.7,147.9 L 243.0,148.1 L 243.3,148.3 L 243.6,148.5 L 244.0,148.7 L 244.3,149.0 L 244.6,149.2 L 245.0,149.4 L 245.3,149.6 L 245.6,149.8 L 245.9,150.0 L 246.3,150.2 L 246.6,150.5 L 246.9,150.7 L 247.2,150.9 L 247.6,151.1 L 247.9,151.3 L 248.2,151.5 L 248.5,151.8 L 248.9,152.0 L 249.2,152.2 L 249.5,152.4 L 249.8,152.6 L 250.2,152.8 L 250.5,153.0 L 250.8,153.2 L 251.1,153.5 L 251.5,153.7 L 251.8,153.9 L 252.1,154.1 L 252.5,154.3 L 252.8,154.5 L 253.1,154.7 L 253.4,154.9 L 253.8,155.2 L 254.1,155.4 L 254.4,155.6 L 254.7,155.8 L 255.1,156.0 L 255.4,156.2 L 255.7,156.4 L 256.0,156.6 L 256.4,156.8 L 256.7,157.1 L 257.0,157.3 L 257.3,157.5 L 257.7,157.7 L 258.0,157.9 L 258.3,158.1 L 258.6,158.3 L 259.0,158.5 L 259.3,158.7 L 259.6,158.9 L 259.9,159.1 L 260.3,159.4 L 260.6,159.6 L 260.9,159.8 L 261.3,160.0 L 261.6,160.2 L 261.9,160.4 L 262.2,160.6 L 262.6,160.8 L 262.9,161.0 L 263.2,161.2 L 263.5,161.4 L 263.9,161.6 L 264.2,161.8 L 264.5,162.0 L 264.8,162.3 L 265.2,162.5 L 265.5,162.7 L 265.8,162.9 L 266.1,163.1 L 266.5,163.3 L 266.8,163.5 L 267.1,163.7 L 267.4,163.9 L 267.8,164.1 L 268.1,164.3 L 268.4,164.5 L 268.8,164.7 L 269.1,164.9 L 269.4,165.1 L 269.7,165.3 L 270.1,165.5 L 270.4,165.7 L 270.7,165.9 L 271.0,166.1 L 271.4,166.3 L 271.7,166.5 L 272.0,166.7 L 272.3,167.0 L 272.7,167.2 L 273.0,167.4 L 273.3,167.6 L 273.6,167.8 L 274.0,168.0 L 274.3,168.2 L 274.6,168.4 L 274.9,168.6 L 275.3,168.8 L 275.6,169.0 L 275.9,169.2 L 276.2,169.4 L 276.6,169.6 L 276.9,169.8 L 277.2,170.0 L 277.6,170.2 L 277.9,170.4 L 278.2,170.6 L 278.5,170.8 L 278.9,171.0 L 279.2,171.2 L 279.5,171.4 L 279.8,171.6 L 280.2,171.8 L 280.5,172.0 L 280.8,172.2 L 281.1,172.4 L 281.5,172.5 L 281.8,172.7 L 282.1,172.9 L 282.4,173.1 L 282.8,173.3 L 283.1,173.5 L 283.4,173.7 L 283.7,173.9 L 284.1,174.1 L 284.4,174.3 L 284.7,174.5 L 285.1,174.7 L 285.4,174.9 L 285.7,175.1 L 286.0,175.3 L 286.4,175.5 L 286.7,175.7 L 287.0,175.9 L 287.3,176.1 L 287.7,176.3 L 288.0,176.5 L 288.3,176.7 L 288.6,176.9 L 289.0,177.1 L 289.3,177.2 L 289.6,177.4 L 289.9,177.6 L 290.3,177.8 L 290.6,178.0 L 290.9,178.2 L 291.2,178.4 L 291.6,178.6 L 291.9,178.8 L 292.2,179.0 L 292.5,179.2 L 292.9,179.4 L 293.2,179.6 L 293.5,179.8 L 293.9,179.9 L 294.2,180.1 L 294.5,180.3 L 294.8,180.5 L 295.2,180.7 L 295.5,180.9 L 295.8,181.1 L 296.1,181.3 L 296.5,181.5 L 296.8,181.7 L 297.1,181.9 L 297.4,182.0 L 297.8,182.2 L 298.1,182.4 L 298.4,182.6 L 298.7,182.8 L 299.1,183.0 L 299.4,183.2 L 299.7,183.4 L 300.0,183.6 L 300.4,183.7 L 300.7,183.9 L 301.0,184.1 L 301.4,184.3 L 301.7,184.5 L 302.0,184.7 L 302.3,184.9 L 302.7,185.1 L 303.0,185.2 L 303.3,185.4 L 303.6,185.6 L 304.0,185.8 L 304.3,186.0 L 304.6,186.2 L 304.9,186.4 L 305.3,186.6 L 305.6,186.7 L 305.9,186.9 L 306.2,187.1 L 306.6,187.3 L 306.9,187.5 L 307.2,187.7 L 307.5,187.9 L 307.9,188.0 L 308.2,188.2 L 308.5,188.4 L 308.8,188.6 L 309.2,188.8 L 309.5,189.0 L 309.8,189.1 L 310.2,189.3 L 310.5,189.5 L 310.8,189.7 L 311.1,189.9 L 311.5,190.1 L 311.8,190.2 L 312.1,190.4 L 312.4,190.6 L 312.8,190.8 L 313.1,191.0 L 313.4,191.2 L 313.7,191.3 L 314.1,191.5 L 314.4,191.7 L 314.7,191.9 L 315.0,192.1 L 315.4,192.2 L 315.7,192.4 L 316.0,192.6 L 316.3,192.8 L 316.7,193.0 L 317.0,193.1 L 317.3,193.3 L 317.6,193.5 L 318.0,193.7 L 318.3,193.9 L 318.6,194.0 L 319.0,194.2 L 319.3,194.4 L 319.6,194.6 L 319.9,194.8 L 320.3,194.9 L 320.6,195.1 L 320.9,195.3 L 321.2,195.5 L 321.6,195.7 L 321.9,195.8 L 322.2,196.0 L 322.5,196.2 L 322.9,196.4 L 323.2,196.5 L 323.5,196.7 L 323.8,196.9 L 324.2,197.1 L 324.5,197.3 L 324.8,197.4 L 325.1,197.6 L 325.5,197.8 L 325.8,198.0 L 326.1,198.1 L 326.5,198.3 L 326.8,198.5 L 327.1,198.7 L 327.4,198.8 L 327.8,199.0 L 328.1,199.2 L 328.4,199.4 L 328.7,199.5 L 329.1,199.7 L 329.4,199.9 L 329.7,200.1 L 330.0,200.2 L 330.4,200.4 L 330.7,200.6 L 331.0,200.8 L 331.3,200.9 L 331.7,201.1 L 332.0,201.3 L 332.3,201.5 L 332.6,201.6 L 333.0,201.8 L 333.3,202.0 L 333.6,202.1 L 333.9,202.3 L 334.3,202.5 L 334.6,202.7 L 334.9,202.8 L 335.3,203.0 L 335.6,203.2 L 335.9,203.3 L 336.2,203.5 L 336.6,203.7 L 336.9,203.9 L 337.2,204.0 L 337.5,204.2 L 337.9,204.4 L 338.2,204.5 L 338.5,204.7 L 338.8,204.9 L 339.2,205.0 L 339.5,205.2 L 339.8,205.4 L 340.1,205.6 L 340.5,205.7 L 340.8,205.9 L 341.1,206.1 L 341.4,206.2 L 341.8,206.4 L 342.1,206.6 L 342.4,206.7 L 342.8,206.9 L 343.1,207.1 L 343.4,207.2 L 343.7,207.4 L 344.1,207.6 L 344.4,207.7 L 344.7,207.9 L 345.0,208.1 L 345.4,208.2 L 345.7,208.4 L 346.0,208.6 L 346.3,208.7 L 346.7,208.9 L 347.0,209.1 L 347.3,209.2 L 347.6,209.4 L 348.0,209.6 L 348.3,209.7 L 348.6,209.9 L 348.9,210.1 L 349.3,210.2 L 349.6,210.4 L 349.9,210.6 L 350.2,210.7 L 350.6,210.9 L 350.9,211.1 L 351.2,211.2 L 351.6,211.4 L 351.9,211.6 L 352.2,211.7 L 352.5,211.9 L 352.9,212.0 L 353.2,212.2 L 353.5,212.4 L 353.8,212.5 L 354.2,212.7 L 354.5,212.9 L 354.8,213.0 L 355.1,213.2 L 355.5,213.3 L 355.8,213.5 L 356.1,213.7 L 356.4,213.8 L 356.8,214.0 L 357.1,214.2 L 357.4,214.3 L 357.7,214.5 L 358.1,214.6 L 358.4,214.8 L 358.7,215.0 L 359.1,215.1 L 359.4,215.3 L 359.7,215.4 L 360.0,215.6 L 360.4,215.8 L 360.7,215.9 L 361.0,216.1 L 361.3,216.2 L 361.7,216.4 L 362.0,216.6 L 362.3,216.7 L 362.6,216.9 L 363.0,217.0 L 363.3,217.2 L 363.6,217.4 L 363.9,217.5 L 364.3,217.7 L 364.6,217.8 L 364.9,218.0 L 365.2,218.1 L 365.6,218.3 L 365.9,218.5 L 366.2,218.6 L 366.6,218.8 L 366.9,218.9 L 367.2,219.1 L 367.5,219.2 L 367.9,219.4 L 368.2,219.6 L 368.5,219.7 L 368.8,219.9 L 369.2,220.0 L 369.5,220.2 L 369.8,220.3 L 370.1,220.5 L 370.5,220.6 L 370.8,220.8 L 371.1,221.0 L 371.4,221.1 L 371.8,221.3 L 372.1,221.4 L 372.4,221.6 L 372.7,221.7 L 373.1,221.9 L 373.4,222.0 L 373.7,222.2 L 374.0,222.3 L 374.4,222.5 L 374.7,222.7 L 375.0,222.8 L 375.4,223.0 L 375.7,223.1 L 376.0,223.3 L 376.3,223.4 L 376.7,223.6 L 377.0,223.7 L 377.3,223.9 L 377.6,224.0 L 378.0,224.2 L 378.3,224.3 L 378.6,224.5 L 378.9,224.6 L 379.3,224.8 L 379.6,224.9 L 379.9,225.1 L 380.2,225.2 L 380.6,225.4 L 380.9,225.5 L 381.2,225.7 L 381.5,225.8 L 381.9,226.0 L 382.2,226.1 L 382.5,226.3 L 382.9,226.4 L 383.2,226.6 L 383.5,226.7 L 383.8,226.9 L 384.2,227.0 L 384.5,227.2 L 384.8,227.3 L 385.1,227.5 L 385.5,227.6 L 385.8,227.8 L 386.1,227.9 L 386.4,228.1 L 386.8,228.2 L 387.1,228.4 L 387.4,228.5 L 387.7,228.7 L 388.1,228.8 L 388.4,229.0 L 388.7,229.1 L 389.0,229.3 L 389.4,229.4 L 389.7,229.6 L 390.0,229.7 L 390.3,229.8 L 390.7,230.0 L 391.0,230.1 L 391.3,230.3 L 391.7,230.4 L 392.0,230.6 L 392.3,230.7 L 392.6,230.9 L 393.0,231.0 L 393.3,231.2 L 393.6,231.3 L 393.9,231.4 L 394.3,231.6 L 394.6,231.7 L 394.9,231.9 L 395.2,232.0 L 395.6,232.2 L 395.9,232.3 L 396.2,232.5 L 396.5,232.6 L 396.9,232.7 L 397.2,232.9 L 397.5,233.0 L 397.8,233.2 L 398.2,233.3 L 398.5,233.5 L 398.8,233.6 L 399.1,233.7 L 399.5,233.9 L 399.8,234.0 L 400.1,234.2 L 400.5,234.3 L 400.8,234.5 L 401.1,234.6 L 401.4,234.7 L 401.8,234.9 L 402.1,235.0 L 402.4,235.2 L 402.7,235.3 L 403.1,235.4 L 403.4,235.6 L 403.7,235.7 L 404.0,235.9 L 404.4,236.0 L 404.7,236.1 L 405.0,236.3 L 405.3,236.4 L 405.7,236.6 L 406.0,236.7 L 406.3,236.8 L 406.6,237.0 L 407.0,237.1 L 407.3,237.3 L 407.6,237.4 L 408.0,237.5 L 408.3,237.7 L 408.6,237.8 L 408.9,237.9 L 409.3,238.1 L 409.6,238.2 L 409.9,238.4 L 410.2,238.5 L 410.6,238.6 L 410.9,238.8 L 411.2,238.9 L 411.5,239.0 L 411.9,239.2 L 412.2,239.3 L 412.5,239.5 L 412.8,239.6 L 413.2,239.7 L 413.5,239.9 L 413.8,240.0 L 414.1,240.1 L 414.5,240.3 L 414.8,240.4 L 415.1,240.5 L 415.4,240.7 L 415.8,240.8 L 416.1,240.9 L 416.4,241.1 L 416.8,241.2 L 417.1,241.4 L 417.4,241.5 L 417.7,241.6 L 418.1,241.8 L 418.4,241.9 L 418.7,242.0 L 419.0,242.2 L 419.4,242.3 L 419.7,242.4 L 420.0,242.6 L 420.3,242.7 L 420.7,242.8 L 421.0,243.0 L 421.3,243.1 L 421.6,243.2 L 422.0,243.4 L 422.3,243.5 L 422.6,243.6 L 422.9,243.8 L 423.3,243.9 L 423.6,244.0 L 423.9,244.1 L 424.3,244.3 L 424.6,244.4 L 424.9,244.5 L 425.2,244.7 L 425.6,244.8 L 425.9,244.9 L 426.2,245.1 L 426.5,245.2 L 426.9,245.3 L 427.2,245.5 L 427.5,245.6 L 427.8,245.7 L 428.2,245.8 L 428.5,246.0 L 428.8,246.1 L 429.1,246.2 L 429.5,246.4 L 429.8,246.5 L 430.1,246.6 L 430.4,246.7 L 430.8,246.9 L 431.1,247.0 L 431.4,247.1 L 431.8,247.3 L 432.1,247.4 L 432.4,247.5 L 432.7,247.6 L 433.1,247.8 L 433.4,247.9 L 433.7,248.0 L 434.0,248.2 L 434.4,248.3 L 434.7,248.4 L 435.0,248.5 L 435.3,248.7 L 435.7,248.8 L 436.0,248.9 L 436.3,249.0 L 436.6,249.2 L 437.0,249.3 L 437.3,249.4 L 437.6,249.5 L 437.9,249.7 L 438.3,249.8 L 438.6,249.9 L 438.9,250.0 L 439.2,250.2 L 439.6,250.3 L 439.9,250.4 L 440.2,250.5 L 440.6,250.7 L 440.9,250.8 L 441.2,250.9 L 441.5,251.0 L 441.9,251.2 L 442.2,251.3 L 442.5,251.4 L 442.8,251.5 L 443.2,251.7 L 443.5,251.8 L 443.8,251.9 L 444.1,252.0 L 444.5,252.2 L 444.8,252.3 L 445.1,252.4 L 445.4,252.5 L 445.8,252.6 L 446.1,252.8 L 446.4,252.9 L 446.7,253.0 L 447.1,253.1 L 447.4,253.3 L 447.7,253.4 L 448.0,253.5 L 448.4,253.6 L 448.7,253.7 L 449.0,253.9 L 449.4,254.0 L 449.7,254.1 L 450.0,254.2 L 450.3,254.3 L 450.7,254.5 L 451.0,254.6 L 451.3,254.7 L 451.6,254.8 L 452.0,254.9 L 452.3,255.1 L 452.6,255.2 L 452.9,255.3 L 453.3,255.4 L 453.6,255.5 L 453.9,255.7 L 454.2,255.8 L 454.6,255.9 L 454.9,256.0 L 455.2,256.1 L 455.5,256.2 L 455.9,256.4 L 456.2,256.5 L 456.5,256.6 L 456.9,256.7 L 457.2,256.8 L 457.5,257.0 L 457.8,257.1 L 458.2,257.2 L 458.5,257.3 L 458.8,257.4 L 459.1,257.5 L 459.5,257.7 L 459.8,257.8 L 460.1,257.9 L 460.4,258.0 L 460.8,258.1 L 461.1,258.2 L 461.4,258.3 L 461.7,258.5 L 462.1,258.6 L 462.4,258.7 L 462.7,258.8 L 463.0,258.9 L 463.4,259.0 L 463.7,259.2 L 464.0,259.3 L 464.3,259.4 L 464.7,259.5 L 465.0,259.6 L 465.3,259.7 L 465.7,259.8 L 466.0,260.0 L 466.3,260.1 L 466.6,260.2 L 467.0,260.3 L 467.3,260.4 L 467.6,260.5 L 467.9,260.6 L 468.3,260.7 L 468.6,260.9 L 468.9,261.0 L 469.2,261.1 L 469.6,261.2 L 469.9,261.3 L 470.2,261.4 L 470.5,261.5 L 470.9,261.6 L 471.2,261.8 L 471.5,261.9 L 471.8,262.0 L 472.2,262.1 L 472.5,262.2 L 472.8,262.3 L 473.2,262.4 L 473.5,262.5 L 473.8,262.6 L 474.1,262.8 L 474.5,262.9 L 474.8,263.0 L 475.1,263.1 L 475.4,263.2 L 475.8,263.3 L 476.1,263.4 L 476.4,263.5 L 476.7,263.6 L 477.1,263.7 L 477.4,263.9 L 477.7,264.0 L 478.0,264.1 L 478.4,264.2 L 478.7,264.3 L 479.0,264.4 L 479.3,264.5 L 479.7,264.6 L 480.0,264.7 L 480.3,264.8 L 480.7,264.9 L 481.0,265.0 L 481.3,265.2 L 481.6,265.3 L 482.0,265.4 L 482.3,265.5 L 482.6,265.6 L 482.9,265.7 L 483.3,265.8 L 483.6,265.9 L 483.9,266.0 L 484.2,266.1 L 484.6,266.2 L 484.9,266.3 L 485.2,266.4 L 485.5,266.5 L 485.9,266.6 L 486.2,266.7 L 486.5,266.9 L 486.8,267.0 L 487.2,267.1 L 487.5,267.2 L 487.8,267.3 L 488.1,267.4 L 488.5,267.5 L 488.8,267.6 L 489.1,267.7 L 489.5,267.8 L 489.8,267.9 L 490.1,268.0 L 490.4,268.1 L 490.8,268.2 L 491.1,268.3 L 491.4,268.4 L 491.7,268.5 L 492.1,268.6 L 492.4,268.7 L 492.7,268.8 L 493.0,268.9 L 493.4,269.0 L 493.7,269.1 L 494.0,269.2 L 494.3,269.3 L 494.7,269.4 L 495.0,269.5 L 495.3,269.7 L 495.6,269.8 L 496.0,269.9 L 496.3,270.0 L 496.6,270.1 L 497.0,270.2 L 497.3,270.3 L 497.6,270.4 L 497.9,270.5 L 498.3,270.6 L 498.6,270.7 L 498.9,270.8 L 499.2,270.9 L 499.6,271.0 L 499.9,271.1 L 500.2,271.2 L 500.5,271.3 L 500.9,271.4 L 501.2,271.5 L 501.5,271.6 L 501.8,271.7 L 502.2,271.8 L 502.5,271.9 L 502.8,272.0 L 503.1,272.1 L 503.5,272.2 L 503.8,272.3 L 504.1,272.4 L 504.4,272.5 L 504.8,272.6 L 505.1,272.6 L 505.4,272.7 L 505.8,272.8 L 506.1,272.9 L 506.4,273.0 L 506.7,273.1 L 507.1,273.2 L 507.4,273.3 L 507.7,273.4 L 508.0,273.5 L 508.4,273.6 L 508.7,273.7 L 509.0,273.8 L 509.3,273.9 L 509.7,274.0 L 510.0,274.1 L 510.3,274.2 L 510.6,274.3 L 511.0,274.4 L 511.3,274.5 L 511.6,274.6 L 511.9,274.7 L 512.3,274.8 L 512.6,274.9 L 512.9,275.0 L 513.2,275.1 L 513.6,275.2 L 513.9,275.2 L 514.2,275.3 L 514.6,275.4 L 514.9,275.5 L 515.2,275.6 L 515.5,275.7 L 515.9,275.8 L 516.2,275.9 L 516.5,276.0 L 516.8,276.1 L 517.2,276.2 L 517.5,276.3 L 517.8,276.4 L 518.1,276.5 L 518.5,276.6 L 518.8,276.7 L 519.1,276.7 L 519.4,276.8 L 519.8,276.9 L 520.1,277.0 L 520.4,277.1 L 520.7,277.2 L 521.1,277.3 L 521.4,277.4 L 521.7,277.5 L 522.1,277.6 L 522.4,277.7 L 522.7,277.8 L 523.0,277.8 L 523.4,277.9 L 523.7,278.0 L 524.0,278.1 L 524.3,278.2 L 524.7,278.3 L 525.0,278.4 L 525.3,278.5 L 525.6,278.6 L 526.0,278.7 L 526.3,278.8 L 526.6,278.8 L 526.9,278.9 L 527.3,279.0 L 527.6,279.1 L 527.9,279.2 L 528.2,279.3 L 528.6,279.4 L 528.9,279.5 L 529.2,279.6 L 529.5,279.6 L 529.9,279.7 L 530.2,279.8 L 530.5,279.9 L 530.9,280.0 L 531.2,280.1 L 531.5,280.2 L 531.8,280.3 L 532.2,280.3 L 532.5,280.4 L 532.8,280.5 L 533.1,280.6 L 533.5,280.7 L 533.8,280.8 L 534.1,280.9 L 534.4,281.0 L 534.8,281.0 L 535.1,281.1 L 535.4,281.2 L 535.7,281.3 L 536.1,281.4 L 536.4,281.5 L 536.7,281.6 L 537.0,281.6 L 537.4,281.7 L 537.7,281.8 L 538.0,281.9 L 538.4,282.0 L 538.7,282.1 L 539.0,282.2 L 539.3,282.2 L 539.7,282.3 L 540.0,282.4 L 540.3,282.5 L 540.6,282.6 L 541.0,282.7 L 541.3,282.8 L 541.6,282.8 L 541.9,282.9 L 542.3,283.0 L 542.6,283.1 L 542.9,283.2 L 543.2,283.3 L 543.6,283.3 L 543.9,283.4 L 544.2,283.5 L 544.5,283.6 L 544.9,283.7 L 545.2,283.8 L 545.5,283.8 L 545.8,283.9 L 546.2,284.0 L 546.5,284.1 L 546.8,284.2 L 547.2,284.2 L 547.5,284.3 L 547.8,284.4 L 548.1,284.5 L 548.5,284.6 L 548.8,284.7 L 549.1,284.7 L 549.4,284.8 L 549.8,284.9 L 550.1,285.0 L 550.4,285.1 L 550.7,285.1 L 551.1,285.2 L 551.4,285.3 L 551.7,285.4 L 552.0,285.5 L 552.4,285.5 L 552.7,285.6 L 553.0,285.7 L 553.3,285.8 L 553.7,285.9 L 554.0,285.9 L 554.3,286.0 L 554.7,286.1 L 555.0,286.2 L 555.3,286.3 L 555.6,286.3 L 556.0,286.4 L 556.3,286.5 L 556.6,286.6 L 556.9,286.7 L 557.3,286.7 L 557.6,286.8 L 557.9,286.9 L 558.2,287.0 L 558.6,287.0 L 558.9,287.1 L 559.2,287.2 L 559.5,287.3 L 559.9,287.4 L 560.2,287.4 L 560.5,287.5 L 560.8,287.6 L 561.2,287.7 L 561.5,287.7 L 561.8,287.8 L 562.1,287.9 L 562.5,288.0 L 562.8,288.0 L 563.1,288.1 L 563.5,288.2 L 563.8,288.3 L 564.1,288.3 L 564.4,288.4 L 564.8,288.5 L 565.1,288.6 L 565.4,288.7 L 565.7,288.7 L 566.1,288.8 L 566.4,288.9 L 566.7,289.0 L 567.0,289.0 L 567.4,289.1 L 567.7,289.2 L 568.0,289.2 L 568.3,289.3 L 568.7,289.4 L 569.0,289.5 L 569.3,289.5 L 569.6,289.6 L 570.0,289.7 L 570.3,289.8 L 570.6,289.8 L 571.0,289.9 L 571.3,290.0 L 571.6,290.1 L 571.9,290.1 L 572.3,290.2 L 572.6,290.3 L 572.9,290.4 L 573.2,290.4 L 573.6,290.5 L 573.9,290.6 L 574.2,290.6 L 574.5,290.7 L 574.9,290.8 L 575.2,290.9 L 575.5,290.9 L 575.8,291.0 L 576.2,291.1 L 576.5,291.1 L 576.8,291.2 L 577.1,291.3 L 577.5,291.4 L 577.8,291.4 L 578.1,291.5 L 578.5,291.6 L 578.8,291.6 L 579.1,291.7 L 579.4,291.8 L 579.8,291.9 L 580.1,291.9 L 580.4,292.0 L 580.7,292.1 L 581.1,292.1 L 581.4,292.2 L 581.7,292.3 L 582.0,292.3 L 582.4,292.4 L 582.7,292.5 L 583.0,292.5 L 583.3,292.6 L 583.7,292.7 L 584.0,292.8 L 584.3,292.8 L 584.6,292.9 L 585.0,293.0 L 585.3,293.0 L 585.6,293.1 L 585.9,293.2 L 586.3,293.2 L 586.6,293.3 L 586.9,293.4 L 587.3,293.4 L 587.6,293.5 L 587.9,293.6 L 588.2,293.6 L 588.6,293.7 L 588.9,293.8 L 589.2,293.8 L 589.5,293.9 L 589.9,294.0 L 590.2,294.0 L 590.5,294.1 L 590.8,294.2 L 591.2,294.2 L 591.5,294.3 L 591.8,294.4 L 592.1,294.4 L 592.5,294.5 L 592.8,294.6 L 593.1,294.6 L 593.4,294.7 L 593.8,294.8 L 594.1,294.8 L 594.4,294.9 L 594.8,295.0 L 595.1,295.0 L 595.4,295.1 L 595.7,295.2 L 596.1,295.2 L 596.4,295.3 L 596.7,295.4 L 597.0,295.4 L 597.4,295.5 L 597.7,295.5 L 598.0,295.6 L 598.3,295.7 L 598.7,295.7 L 599.0,295.8 L 599.3,295.9 L 599.6,295.9 L 600.0,296.0 L 600.3,296.1 L 600.6,296.1 L 600.9,296.2 L 601.3,296.2 L 601.6,296.3 L 601.9,296.4 L 602.2,296.4 L 602.6,296.5 L 602.9,296.6 L 603.2,296.6 L 603.6,296.7 L 603.9,296.7 L 604.2,296.8 L 604.5,296.9 L 604.9,296.9 L 605.2,297.0 L 605.5,297.0 L 605.8,297.1 L 606.2,297.2 L 606.5,297.2 L 606.8,297.3 L 607.1,297.4 L 607.5,297.4 L 607.8,297.5 L 608.1,297.5 L 608.4,297.6 L 608.8,297.7 L 609.1,297.7 L 609.4,297.8 L 609.7,297.8 L 610.1,297.9 L 610.4,298.0 L 610.7,298.0 L 611.1,298.1 L 611.4,298.1 L 611.7,298.2 L 612.0,298.3 L 612.4,298.3 L 612.7,298.4 L 613.0,298.4 L 613.3,298.5 L 613.7,298.6 L 614.0,298.6 L 614.3,298.7 L 614.6,298.7 L 615.0,298.8 L 615.3,298.8 L 615.6,298.9 L 615.9,299.0 L 616.3,299.0 L 616.6,299.1 L 616.9,299.1 L 617.2,299.2 L 617.6,299.2 L 617.9,299.3 L 618.2,299.4 L 618.5,299.4 L 618.9,299.5 L 619.2,299.5 L 619.5,299.6 L 619.9,299.6 L 620.2,299.7 L 620.5,299.8 L 620.8,299.8 L 621.2,299.9 L 621.5,299.9 L 621.8,300.0 L 622.1,300.0 L 622.5,300.1 L 622.8,300.2 L 623.1,300.2 L 623.4,300.3 L 623.8,300.3 L 624.1,300.4 L 624.4,300.4 L 624.7,300.5 L 625.1,300.5 L 625.4,300.6 L 625.7,300.6 L 626.0,300.7 L 626.4,300.8 L 626.7,300.8 L 627.0,300.9 L 627.3,300.9 L 627.7,301.0 L 628.0,301.0 L 628.3,301.1 L 628.7,301.1 L 629.0,301.2 L 629.3,301.2 L 629.6,301.3 L 630.0,301.4 L 630.3,301.4 L 630.6,301.5 L 630.9,301.5 L 631.3,301.6 L 631.6,301.6 L 631.9,301.7 L 632.2,301.7 L 632.6,301.8 L 632.9,301.8 L 633.2,301.9 L 633.5,301.9 L 633.9,302.0 L 634.2,302.0 L 634.5,302.1 L 634.8,302.1 L 635.2,302.2 L 635.5,302.2 L 635.8,302.3 L 636.2,302.3 L 636.5,302.4 L 636.8,302.4 L 637.1,302.5 L 637.5,302.6 L 637.8,302.6 L 638.1,302.7 L 638.4,302.7 L 638.8,302.8 L 639.1,302.8 L 639.4,302.9 L 639.7,302.9 L 640.1,303.0 L 640.4,303.0 L 640.7,303.1 L 641.0,303.1 L 641.4,303.2 L 641.7,303.2 L 642.0,303.3 L 642.3,303.3 L 642.7,303.4 L 643.0,303.4 L 643.3,303.5 L 643.6,303.5 L 644.0,303.6 L 644.3,303.6 L 644.6,303.6 L 645.0,303.7 L 645.3,303.7 L 645.6,303.8 L 645.9,303.8 L 646.3,303.9 L 646.6,303.9 L 646.9,304.0 L 647.2,304.0 L 647.6,304.1 L 647.9,304.1 L 648.2,304.2 L 648.5,304.2 L 648.9,304.3 L 649.2,304.3 L 649.5,304.4 L 649.8,304.4 L 650.2,304.5 L 650.5,304.5 L 650.8,304.6 L 651.1,304.6 L 651.5,304.7 L 651.8,304.7 L 652.1,304.7 L 652.5,304.8 L 652.8,304.8 L 653.1,304.9 L 653.4,304.9 L 653.8,305.0 L 654.1,305.0 L 654.4,305.1 L 654.7,305.1 L 655.1,305.2 L 655.4,305.2 L 655.7,305.2 L 656.0,305.3 L 656.4,305.3 L 656.7,305.4 L 657.0,305.4 L 657.3,305.5 L 657.7,305.5 L 658.0,305.6 L 658.3,305.6 L 658.6,305.7 L 659.0,305.7 L 659.3,305.7 L 659.6,305.8 L 659.9,305.8 L 660.3,305.9 L 660.6,305.9 L 660.9,306.0 L 661.3,306.0 L 661.6,306.0 L 661.9,306.1 L 662.2,306.1 L 662.6,306.2 L 662.9,306.2 L 663.2,306.3 L 663.5,306.3 L 663.9,306.4 L 664.2,306.4 L 664.5,306.4 L 664.8,306.5 L 665.2,306.5 L 665.5,306.6 L 665.8,306.6 L 666.1,306.6 L 666.5,306.7 L 666.8,306.7 L 667.1,306.8 L 667.4,306.8 L 667.8,306.9 L 668.1,306.9 L 668.4,306.9 L 668.8,307.0 L 669.1,307.0 L 669.4,307.1 L 669.7,307.1 L 670.1,307.1 L 670.4,307.2 L 670.7,307.2 L 671.0,307.3 L 671.4,307.3 L 671.7,307.4 L 672.0,307.4 L 672.3,307.4 L 672.7,307.5 L 673.0,307.5 L 673.3,307.6 L 673.6,307.6 L 674.0,307.6 L 674.3,307.7 L 674.6,307.7 L 674.9,307.8 L 675.3,307.8 L 675.6,307.8 L 675.9,307.9 L 676.2,307.9 L 676.6,308.0 L 676.9,308.0 L 677.2,308.0 L 677.6,308.1 L 677.9,308.1 L 678.2,308.1 L 678.5,308.2 L 678.9,308.2 L 679.2,308.3 L 679.5,308.3 L 679.8,308.3 L 680.2,308.4 L 680.5,308.4 L 680.8,308.5 L 681.1,308.5 L 681.5,308.5 L 681.8,308.6 L 682.1,308.6 L 682.4,308.6 L 682.8,308.7 L 683.1,308.7 L 683.4,308.8 L 683.7,308.8 L 684.1,308.8 L 684.4,308.9 L 684.7,308.9 L 685.1,308.9 L 685.4,309.0 L 685.7,309.0 L 686.0,309.0 L 686.4,309.1 L 686.7,309.1 L 687.0,309.2 L 687.3,309.2 L 687.7,309.2 L 688.0,309.3 L 688.3,309.3 L 688.6,309.3 L 689.0,309.4 L 689.3,309.4 L 689.6,309.4 L 689.9,309.5 L 690.3,309.5 L 690.6,309.5 L 690.9,309.6 L 691.2,309.6 L 691.6,309.7 L 691.9,309.7 L 692.2,309.7 L 692.6,309.8 L 692.9,309.8 L 693.2,309.8 L 693.5,309.9 L 693.9,309.9 L 694.2,309.9 L 694.5,310.0 L 694.8,310.0 L 695.2,310.0 L 695.5,310.1 L 695.8,310.1 L 696.1,310.1 L 696.5,310.2 L 696.8,310.2 L 697.1,310.2 L 697.4,310.3 L 697.8,310.3 L 698.1,310.3 L 698.4,310.4 L 698.7,310.4 L 699.1,310.4 L 699.4,310.5 L 699.7,310.5 L 700.0,310.5 L 700.4,310.6 L 700.7,310.6 L 701.0,310.6 L 701.4,310.7 L 701.7,310.7 L 702.0,310.7 L 702.3,310.8 L 702.7,310.8 L 703.0,310.8 L 703.3,310.9 L 703.6,310.9 L 704.0,310.9 L 704.3,310.9 L 704.6,311.0 L 704.9,311.0 L 705.3,311.0 L 705.6,311.1 L 705.9,311.1 L 706.2,311.1 L 706.6,311.2 L 706.9,311.2 L 707.2,311.2 L 707.5,311.3 L 707.9,311.3 L 708.2,311.3 L 708.5,311.3 L 708.9,311.4 L 709.2,311.4 L 709.5,311.4 L 709.8,311.5 L 710.2,311.5 L 710.5,311.5 L 710.8,311.6 L 711.1,311.6 L 711.5,311.6 L 711.8,311.6 L 712.1,311.7 L 712.4,311.7 L 712.8,311.7 L 713.1,311.8 L 713.4,311.8 L 713.7,311.8 L 714.1,311.9 L 714.4,311.9 L 714.7,311.9 L 715.0,311.9 L 715.4,312.0 L 715.7,312.0 L 716.0,312.0 L 716.3,312.1 L 716.7,312.1 L 717.0,312.1 L 717.3,312.1 L 717.7,312.2 L 718.0,312.2 L 718.3,312.2 L 718.6,312.2 L 719.0,312.3 L 719.3,312.3 L 719.6,312.3 L 719.9,312.4 L 720.3,312.4 L 720.6,312.4 L 720.9,312.4 L 721.2,312.5 L 721.6,312.5 L 721.9,312.5 L 722.2,312.5 L 722.5,312.6 L 722.9,312.6 L 723.2,312.6 L 723.5,312.7 L 723.8,312.7 L 724.2,312.7 L 724.5,312.7 L 724.8,312.8 L 725.2,312.8 L 725.5,312.8 L 725.8,312.8 L 726.1,312.9 L 726.5,312.9 L 726.8,312.9 L 727.1,312.9 L 727.4,313.0 L 727.8,313.0 L 728.1,313.0 L 728.4,313.0 L 728.7,313.1 L 729.1,313.1 L 729.4,313.1 L 729.7,313.1 L 730.0,313.2 L 730.4,313.2 L 730.7,313.2 L 731.0,313.2 L 731.3,313.3 L 731.7,313.3 L 732.0,313.3 L 732.3,313.3 L 732.6,313.4 L 733.0,313.4 L 733.3,313.4 L 733.6,313.4 L 734.0,313.5 L 734.3,313.5 L 734.6,313.5 L 734.9,313.5 L 735.3,313.6 L 735.6,313.6 L 735.9,313.6 L 736.2,313.6 L 736.6,313.6 L 736.9,313.7 L 737.2,313.7 L 737.5,313.7 L 737.9,313.7 L 738.2,313.8 L 738.5,313.8 L 738.8,313.8 L 739.2,313.8 L 739.5,313.9 L 739.8,313.9 L 740.1,313.9 L 740.5,313.9 L 740.8,313.9 L 741.1,314.0 L 741.4,314.0 L 741.8,314.0 L 742.1,314.0 L 742.4,314.1 L 742.8,314.1 L 743.1,314.1 L 743.4,314.1 L 743.7,314.1 L 744.1,314.2 L 744.4,314.2 L 744.7,314.2 L 745.0,314.2 L 745.4,314.2 L 745.7,314.3 L 746.0,314.3 L 746.3,314.3 L 746.7,314.3 L 747.0,314.3 L 747.3,314.4 L 747.6,314.4 L 748.0,314.4 L 748.3,314.4 L 748.6,314.5 L 748.9,314.5 L 749.3,314.5 L 749.6,314.5 L 749.9,314.5 L 750.3,314.6 L 750.6,314.6 L 750.9,314.6 L 751.2,314.6 L 751.6,314.6 L 751.9,314.6 L 752.2,314.7 L 752.5,314.7 L 752.9,314.7 L 753.2,314.7 L 753.5,314.7 L 753.8,314.8 L 754.2,314.8 L 754.5,314.8 L 754.8,314.8 L 755.1,314.8 L 755.5,314.9 L 755.8,314.9 L 756.1,314.9 L 756.4,314.9 L 756.8,314.9 L 757.1,315.0 L 757.4,315.0 L 757.8,315.0 L 758.1,315.0 L 758.4,315.0 L 758.7,315.0 L 759.1,315.1 L 759.4,315.1 L 759.7,315.1 L 760.0,315.1 L 760.4,315.1 L 760.7,315.2 L 761.0,315.2 L 761.3,315.2 L 761.7,315.2 L 762.0,315.2 L 762.3,315.2 L 762.6,315.3 L 763.0,315.3 L 763.3,315.3 L 763.6,315.3 L 763.9,315.3 L 764.3,315.3 L 764.6,315.4 L 764.9,315.4 L 765.2,315.4 L 765.6,315.4 L 765.9,315.4 L 766.2,315.4 L 766.6,315.5 L 766.9,315.5 L 767.2,315.5 L 767.5,315.5 L 767.9,315.5 L 768.2,315.5 L 768.5,315.6 L 768.8,315.6 L 769.2,315.6 L 769.5,315.6 L 769.8,315.6 L 770.1,315.6 L 770.5,315.6 L 770.8,315.7 L 771.1,315.7 L 771.4,315.7 L 771.8,315.7 L 772.1,315.7 L 772.4,315.7 L 772.7,315.8 L 773.1,315.8 L 773.4,315.8 L 773.7,315.8 L 774.0,315.8 L 774.4,315.8 L 774.7,315.8 L 775.0,315.9 L 775.4,315.9 L 775.7,315.9 L 776.0,315.9 L 776.3,315.9 L 776.7,315.9 L 777.0,315.9 L 777.3,316.0 L 777.6,316.0 L 778.0,316.0 L 778.3,316.0 L 778.6,316.0 L 778.9,316.0 L 779.3,316.0 L 779.6,316.1 L 779.9,316.1 L 780.2,316.1 L 780.6,316.1 L 780.9,316.1 L 781.2,316.1 L 781.5,316.1 L 781.9,316.1 L 782.2,316.2 L 782.5,316.2 L 782.9,316.2 L 783.2,316.2 L 783.5,316.2 L 783.8,316.2 L 784.2,316.2 L 784.5,316.3 L 784.8,316.3 L 785.1,316.3 L 785.5,316.3 L 785.8,316.3 L 786.1,316.3 L 786.4,316.3 L 786.8,316.3 L 787.1,316.3 L 787.4,316.4 L 787.7,316.4 L 788.1,316.4 L 788.4,316.4 L 788.7,316.4 L 789.0,316.4 L 789.4,316.4 L 789.7,316.4 L 790.0,316.5 L 790.4,316.5 L 790.7,316.5 L 791.0,316.5 L 791.3,316.5 L 791.7,316.5 L 792.0,316.5 L 792.3,316.5 L 792.6,316.5 L 793.0,316.6 L 793.3,316.6 L 793.6,316.6 L 793.9,316.6 L 794.3,316.6 L 794.6,316.6 L 794.9,316.6 L 795.2,316.6 L 795.6,316.6 L 795.9,316.7 L 796.2,316.7 L 796.5,316.7 L 796.9,316.7 L 797.2,316.7 L 797.5,316.7 L 797.8,316.7 L 798.2,316.7 L 798.5,316.7 L 798.8,316.7 L 799.2,316.8 L 799.5,316.8 L 799.8,316.8 L 800.1,316.8 L 800.5,316.8 L 800.8,316.8 L 801.1,316.8 L 801.4,316.8 L 801.8,316.8 L 802.1,316.8 L 802.4,316.8 L 802.7,316.9 L 803.1,316.9 L 803.4,316.9 L 803.7,316.9 L 804.0,316.9 L 804.4,316.9 L 804.7,316.9 L 805.0,316.9 L 805.3,316.9 L 805.7,316.9 L 806.0,316.9 L 806.3,317.0 L 806.6,317.0 L 807.0,317.0 L 807.3,317.0 L 807.6,317.0 L 808.0,317.0 L 808.3,317.0 L 808.6,317.0 L 808.9,317.0 L 809.3,317.0 L 809.6,317.0 L 809.9,317.0 L 810.2,317.1 L 810.6,317.1 L 810.9,317.1 L 811.2,317.1 L 811.5,317.1 L 811.9,317.1 L 812.2,317.1 L 812.5,317.1 L 812.8,317.1 L 813.2,317.1 L 813.5,317.1 L 813.8,317.1 L 814.1,317.1 L 814.5,317.2 L 814.8,317.2 L 815.1,317.2 L 815.5,317.2 L 815.8,317.2 L 816.1,317.2 L 816.4,317.2 L 816.8,317.2 L 817.1,317.2 L 817.4,317.2 L 817.7,317.2 L 818.1,317.2 L 818.4,317.2 L 818.7,317.2 L 819.0,317.2 L 819.4,317.3 L 819.7,317.3 L 820.0,317.3 L 820.3,317.3 L 820.7,317.3 L 821.0,317.3 L 821.3,317.3 L 821.6,317.3 L 822.0,317.3 L 822.3,317.3 L 822.6,317.3 L 823.0,317.3 L 823.3,317.3 L 823.6,317.3 L 823.9,317.3 L 824.3,317.3 L 824.6,317.3 L 824.9,317.4 L 825.2,317.4 L 825.6,317.4 L 825.9,317.4 L 826.2,317.4 L 826.5,317.4 L 826.9,317.4 L 827.2,317.4 L 827.5,317.4 L 827.8,317.4 L 828.2,317.4 L 828.5,317.4 L 828.8,317.4 L 829.1,317.4 L 829.5,317.4 L 829.8,317.4 L 830.1,317.4 L 830.4,317.4 L 830.8,317.4 L 831.1,317.5 L 831.4,317.5 L 831.8,317.5 L 832.1,317.5 L 832.4,317.5 L 832.7,317.5 L 833.1,317.5 L 833.4,317.5 L 833.7,317.5 L 834.0,317.5 L 834.4,317.5 L 834.7,317.5 L 835.0,317.5 L 835.3,317.5 L 835.7,317.5 L 836.0,317.5 L 836.3,317.5 L 836.6,317.5 L 837.0,317.5 L 837.3,317.5 L 837.6,317.5 L 837.9,317.5 L 838.3,317.5 L 838.6,317.5 L 838.9,317.5 L 839.2,317.6 L 839.6,317.6 L 839.9,317.6 L 840.2,317.6 L 840.6,317.6 L 840.9,317.6 L 841.2,317.6 L 841.5,317.6 L 841.9,317.6 L 842.2,317.6 L 842.5,317.6 L 842.8,317.6 L 843.2,317.6 L 843.5,317.6 L 843.8,317.6 L 844.1,317.6 L 844.5,317.6 L 844.8,317.6 L 845.1,317.6 L 845.4,317.6 L 845.8,317.6 L 846.1,317.6 L 846.4,317.6 L 846.7,317.6 L 847.1,317.6 L 847.4,317.6 L 847.7,317.6 L 848.1,317.6 L 848.4,317.6 L 848.7,317.6 L 849.0,317.6 L 849.4,317.6 L 849.7,317.6 L 850.0,317.6 L 850.3,317.6 L 850.7,317.7 L 851.0,317.7 L 851.3,317.7 L 851.6,317.7 L 852.0,317.7 L 852.3,317.7 L 852.6,317.7 L 852.9,317.7 L 853.3,317.7 L 853.6,317.7 L 853.9,317.7 L 854.2,317.7 L 854.6,317.7 L 854.9,317.7 L 855.2,317.7 L 855.5,317.7 L 855.9,317.7 L 856.2,317.7 L 856.5,317.7 L 856.9,317.7 L 857.2,317.7 L 857.5,317.7 L 857.8,317.7 L 858.2,317.7 L 858.5,317.7 L 858.8,317.7 L 859.1,317.7 L 859.5,317.7 L 859.8,317.7 L 860.1,317.7 L 860.4,317.7 L 860.8,317.7 L 861.1,317.7 L 861.4,317.7 L 861.7,317.7 L 862.1,317.7 L 862.4,317.7 L 862.7,317.7 L 863.0,317.7 L 863.4,317.7 L 863.7,317.7" fill="none" stroke="#ef5350" stroke-width="2.5" stroke-linecap="round"/>
  <circle cx="65.0" cy="317.7" r="3.5" fill="#ffab91" stroke="#1a1a2e" stroke-width="1.5"/>
  <text x="65.0" y="307.7" text-anchor="start" class="ev">Revival</text>
  <circle cx="81.3" cy="317.7" r="3.5" fill="#ffab91" stroke="#1a1a2e" stroke-width="1.5"/>
  <text x="81.3" y="307.7" text-anchor="start" class="ev">Sandy ON</text>
  <circle cx="97.6" cy="62.7" r="3.5" fill="#ffab91" stroke="#1a1a2e" stroke-width="1.5"/>
  <text x="97.6" y="52.7" text-anchor="middle" class="ev">Peak</text>
  <circle cx="130.2" cy="62.7" r="3.5" fill="#ffab91" stroke="#1a1a2e" stroke-width="1.5"/>
  <text x="130.2" y="78.7" text-anchor="middle" class="ev">Decay</text>
  <circle cx="863.7" cy="317.7" r="3.5" fill="#ffab91" stroke="#1a1a2e" stroke-width="1.5"/>
  <text x="863.7" y="307.7" text-anchor="end" class="ev">DEATH</text>
  <text x="113.9" y="50.7" text-anchor="middle" class="ev" style="font-size:10px; fill:#ef5350;">99.35%</text>
</svg>