<svg xmlns="http://www.w3.org/2000/svg" viewBox="0 0 900 320" font-family="Consolas, monospace">
  <defs><style>
    .al { font-size: 11px; fill: #b0bec5; }
    .tl { font-size: 14px; fill: #eceff1; font-weight: bold; }
    .sl { font-size: 9px; fill: #eceff1; }
    .se { font-size: 8px; fill: #b0bec5; }
  </style></defs>
  <rect width="900" height="320" rx="8" fill="#1a1a2e"/>
  <text x="450" y="28" text-anchor="middle" class="tl">Song Structure — "I Really Want to Stay at Your House"</text>
  <line x1="65" y1="260" x2="880" y2="260" stroke="#37474f" stroke-width="0.5"/>
  <text x="60" y="264" text-anchor="end" class="al">0/10</text>
  <line x1="65" y1="217" x2="880" y2="217" stroke="#37474f" stroke-width="0.5"/>
  <text x="60" y="221" text-anchor="end" class="al">2/10</text>
  <line x1="65" y1="174" x2="880" y2="174" stroke="#37474f" stroke-width="0.5"/>
  <text x="60" y="178" text-anchor="end" class="al">4/10</text>
  <line x1="65" y1="131" x2="880" y2="131" stroke="#37474f" stroke-width="0.5"/>
  <text x="60" y="135" text-anchor="end" class="al">6/10</text>
  <line x1="65" y1="88" x2="880" y2="88" stroke="#37474f" stroke-width="0.5"/>
  <text x="60" y="92" text-anchor="end" class="al">8/10</text>
  <line x1="65" y1="45" x2="880" y2="45" stroke="#37474f" stroke-width="0.5"/>
  <text x="60" y="49" text-anchor="end" class="al">10/10</text>
  <line x1="65" y1="45" x2="65" y2="260" stroke="#37474f" stroke-width="0.5"/>
  <text x="65" y="276" text-anchor="middle" class="al">0:00</text>
  <line x1="163" y1="45" x2="163" y2="260" stroke="#37474f" stroke-width="0.5"/>
  <text x="163" y="276" text-anchor="middle" class="al">0:30</text>
  <line x1="261" y1="45" x2="261" y2="260" stroke="#37474f" stroke-width="0.5"/>
  <text x="261" y="276" text-anchor="middle" class="al">1:00</text>
  <line x1="358" y1="45" x2="358" y2="260" stroke="#37474f" stroke-width="0.5"/>
  <text x="358" y="276" text-anchor="middle" class="al">1:30</text>
  <line x1="456" y1="45" x2="456" y2="260" stroke="#37474f" stroke-width="0.5"/>
  <text x="456" y="276" text-anchor="middle" class="al">2:00</text>
  <line x1="554" y1="45" x2="554" y2="260" stroke="#37474f" stroke-width="0.5"/>
  <text x="554" y="276" text-anchor="middle" class="al">2:30</text>
  <line x1="652" y1="45" x2="652" y2="260" stroke="#37474f" stroke-width="0.5"/>
  <text x="652" y="276" text-anchor="middle" class="al">3:00</text>
  <line x1="750" y1="45" x2="750" y2="260" stroke="#37474f" stroke-width="0.5"/>
  <text x="750" y="276" text-anchor="middle" class="al">3:30</text>
  <line x1="847" y1="45" x2="847" y2="260" stroke="#37474f" stroke-width="0.5"/>
  <text x="847" y="276" text-anchor="middle" class="al">4:00</text>
  <line x1="65" y1="45" x2="65" y2="260" stroke="#607d8b" stroke-width="1.5"/>
  <line x1="65" y1="260" x2="880" y2="260" stroke="#607d8b" stroke-width="1.5"/>
  <text x="472" y="312" text-anchor="middle" class="al">Song Time</text>
  <text x="12" y="152" text-anchor="middle" class="al" transform="rotate(-90,12,152)">Energy</text>
  <rect x="65.0" y="238.5" width="22.8" height="21.5" fill="#546e7a" opacity="0.7" rx="2"/>
  <rect x="65.0" y="238.5" width="22.8" height="21.5" fill="none" stroke="#546e7a" stroke-width="1" rx="2"/>
  <text x="76.4" y="232.5" text-anchor="middle" class="sl">Intro</text>
  <text x="76.4" y="221.5" text-anchor="middle" class="se">1/10</text>
  <rect x="87.8" y="195.5" width="146.7" height="64.5" fill="#4fc3f7" opacity="0.7" rx="2"/>
  <rect x="87.8" y="195.5" width="146.7" height="64.5" fill="none" stroke="#4fc3f7" stroke-width="1" rx="2"/>
  <text x="161.2" y="189.5" text-anchor="middle" class="sl">Verse 1</text>
  <text x="161.2" y="178.5" text-anchor="middle" class="se">3/10</text>
  <rect x="234.5" y="152.5" width="75.0" height="107.5" fill="#81c784" opacity="0.7" rx="2"/>
  <rect x="234.5" y="152.5" width="75.0" height="107.5" fill="none" stroke="#81c784" stroke-width="1" rx="2"/>
  <text x="272.0" y="146.5" text-anchor="middle" class="sl">Pre-Ch 1</text>
  <text x="272.0" y="135.5" text-anchor="middle" class="se">5/10</text>
  <rect x="309.5" y="109.5" width="123.9" height="150.5" fill="#fff176" opacity="0.7" rx="2"/>
  <rect x="309.5" y="109.5" width="123.9" height="150.5" fill="none" stroke="#fff176" stroke-width="1" rx="2"/>
  <text x="371.4" y="103.5" text-anchor="middle" class="sl">Chorus 1</text>
  <text x="371.4" y="92.5" text-anchor="middle" class="se">7/10</text>
  <rect x="433.4" y="174.0" width="97.8" height="86.0" fill="#4fc3f7" opacity="0.7" rx="2"/>
  <rect x="433.4" y="174.0" width="97.8" height="86.0" fill="none" stroke="#4fc3f7" stroke-width="1" rx="2"/>
  <text x="482.3" y="168.0" text-anchor="middle" class="sl">Verse 2</text>
  <text x="482.3" y="157.0" text-anchor="middle" class="se">4/10</text>
  <rect x="531.2" y="131.0" width="75.0" height="129.0" fill="#81c784" opacity="0.7" rx="2"/>
  <rect x="531.2" y="131.0" width="75.0" height="129.0" fill="none" stroke="#81c784" stroke-width="1" rx="2"/>
  <text x="568.7" y="125.0" text-anchor="middle" class="sl">Pre-Ch 2</text>
  <text x="568.7" y="114.0" text-anchor="middle" class="se">6/10</text>
  <rect x="606.2" y="88.0" width="71.7" height="172.0" fill="#ffb74d" opacity="0.7" rx="2"/>
  <rect x="606.2" y="88.0" width="71.7" height="172.0" fill="none" stroke="#ffb74d" stroke-width="1" rx="2"/>
  <text x="642.0" y="82.0" text-anchor="middle" class="sl">Chorus 2</text>
  <text x="642.0" y="71.0" text-anchor="middle" class="se">8/10</text>
  <rect x="677.9" y="152.5" width="52.2" height="107.5" fill="#ce93d8" opacity="0.7" rx="2"/>
  <rect x="677.9" y="152.5" width="52.2" height="107.5" fill="none" stroke="#ce93d8" stroke-width="1" rx="2"/>
  <text x="704.0" y="146.5" text-anchor="middle" class="sl">Bridge</text>
  <text x="704.0" y="135.5" text-anchor="middle" class="se">5/10</text>
  <rect x="730.0" y="109.5" width="52.2" height="150.5" fill="#81c784" opacity="0.7" rx="2"/>
  <rect x="730.0" y="109.5" width="52.2" height="150.5" fill="none" stroke="#81c784" stroke-width="1" rx="2"/>
  <text x="756.1" y="103.5" text-anchor="middle" class="sl">Pre-Ch 3</text>
  <text x="756.1" y="92.5" text-anchor="middle" class="se">7/10</text>
  <rect x="782.2" y="66.5" width="58.7" height="193.5" fill="#ef5350" opacity="0.7" rx="2"/>
  <rect x="782.2" y="66.5" width="58.7" height="193.5" fill="none" stroke="#ef5350" stroke-width="1" rx="2"/>
  <text x="811.5" y="60.5" text-anchor="middle" class="sl">Final Ch</text>
  <text x="811.5" y="49.5" text-anchor="middle" class="se">9/10</text>
  <rect x="840.9" y="217.0" width="29.3" height="43.0" fill="#546e7a" opacity="0.7" rx="2"/>
  <rect x="840.9" y="217.0" width="29.3" height="43.0" fill="none" stroke="#546e7a" stroke-width="1" rx="2"/>
  <text x="855.5" y="211.0" text-anchor="middle" class="sl">Outro</text>
  <text x="855.5" y="200.0" text-anchor="middle" class="se">2/10</text>
</svg>