<svg xmlns="http://www.w3.org/2000/svg" viewBox="0 0 820 420" font-family="Consolas, monospace">
  <defs>
    <style>
      .axis-label { font-size: 11px; fill: #b0bec5; }
      .title { font-size: 14px; fill: #eceff1; font-weight: bold; }
      .grid { stroke: #37474f; stroke-width: 0.5; }
      .axis { stroke: #607d8b; stroke-width: 1.5; }
      .phase-label { font-size: 10px; fill: #b0bec5; }
      .phase-value { font-size: 10px; fill: #eceff1; font-weight: bold; }
      .event-label { font-size: 9px; fill: #ffab91; }
    </style>
  </defs>
  <rect width="820" height="420" rx="8" fill="#1a1a2e"/>
  <text x="410" y="28" text-anchor="middle" class="title">Last Breath — Phase Timeline (Stage 6)</text>
  <line x1="65" y1="355.0" x2="800" y2="355.0" class="grid"/>
  <text x="60" y="359.0" text-anchor="end" class="axis-label">89%</text>
  <line x1="65" y1="326.8" x2="800" y2="326.8" class="grid"/>
  <text x="60" y="330.8" text-anchor="end" class="axis-label">90%</text>
  <line x1="65" y1="298.6" x2="800" y2="298.6" class="grid"/>
  <text x="60" y="302.6" text-anchor="end" class="axis-label">91%</text>
  <line x1="65" y1="270.5" x2="800" y2="270.5" class="grid"/>
  <text x="60" y="274.5" text-anchor="end" class="axis-label">92%</text>
  <line x1="65" y1="242.3" x2="800" y2="242.3" class="grid"/>
  <text x="60" y="246.3" text-anchor="end" class="axis-label">93%</text>
  <line x1="65" y1="214.1" x2="800" y2="214.1" class="grid"/>
  <text x="60" y="218.1" text-anchor="end" class="axis-label">94%</text>
  <line x1="65" y1="185.9" x2="800" y2="185.9" class="grid"/>
  <text x="60" y="189.9" text-anchor="end" class="axis-label">95%</text>
  <line x1="65" y1="157.7" x2="800" y2="157.7" class="grid"/>
  <text x="60" y="161.7" text-anchor="end" class="axis-label">96%</text>
  <line x1="65" y1="129.5" x2="800" y2="129.5" class="grid"/>
  <text x="60" y="133.5" text-anchor="end" class="axis-label">97%</text>
  <line x1="65" y1="101.4" x2="800" y2="101.4" class="grid"/>
  <text x="60" y="105.4" text-anchor="end" class="axis-label">98%</text>
  <line x1="65" y1="73.2" x2="800" y2="73.2" class="grid"/>
  <text x="60" y="77.2" text-anchor="end" class="axis-label">99%</text>
  <line x1="65" y1="45.0" x2="800" y2="45.0" class="grid"/>
  <text x="60" y="49.0" text-anchor="end" class="axis-label">100%</text>
  <line x1="65.0" y1="45" x2="65.0" y2="355" class="grid"/>
  <text x="65.0" y="373" text-anchor="middle" class="axis-label">0s</text>
  <line x1="94.4" y1="45" x2="94.4" y2="355" class="grid"/>
  <text x="94.4" y="373" text-anchor="middle" class="axis-label">5s</text>
  <line x1="123.8" y1="45" x2="123.8" y2="355" class="grid"/>
  <text x="123.8" y="373" text-anchor="middle" class="axis-label">10s</text>
  <line x1="153.2" y1="45" x2="153.2" y2="355" class="grid"/>
  <text x="153.2" y="373" text-anchor="middle" class="axis-label">15s</text>
  <line x1="182.6" y1="45" x2="182.6" y2="355" class="grid"/>
  <text x="182.6" y="373" text-anchor="middle" class="axis-label">20s</text>
  <line x1="241.4" y1="45" x2="241.4" y2="355" class="grid"/>
  <text x="241.4" y="373" text-anchor="middle" class="axis-label">30s</text>
  <line x1="300.2" y1="45" x2="300.2" y2="355" class="grid"/>
  <text x="300.2" y="373" text-anchor="middle" class="axis-label">40s</text>
  <line x1="359.0" y1="45" x2="359.0" y2="355" class="grid"/>
  <text x="359.0" y="373" text-anchor="middle" class="axis-label">50s</text>
  <line x1="417.8" y1="45" x2="417.8" y2="355" class="grid"/>
  <text x="417.8" y="373" text-anchor="middle" class="axis-label">60s</text>
  <line x1="535.4" y1="45" x2="535.4" y2="355" class="grid"/>
  <text x="535.4" y="373" text-anchor="middle" class="axis-label">80s</text>
  <line x1="653.0" y1="45" x2="653.0" y2="355" class="grid"/>
  <text x="653.0" y="373" text-anchor="middle" class="axis-label">100s</text>
  <line x1="770.6" y1="45" x2="770.6" y2="355" class="grid"/>
  <text x="770.6" y="373" text-anchor="middle" class="axis-label">120s</text>
  <line x1="65" y1="45" x2="65" y2="355" class="axis"/>
  <line x1="65" y1="355" x2="800" y2="355" class="axis"/>
  <text x="432.5" y="412" text-anchor="middle" class="axis-label">Time (seconds)</text>
  <text x="15" y="200.0" text-anchor="middle" class="axis-label" transform="rotate(-90, 15, 200.0)">Dilation %</text>
  <rect x="65.0" y="45" width="29.4" height="310" fill="#1b3a4b" opacity="0.3"/>
  <text x="79.7" y="390" text-anchor="middle" class="phase-label">WAIT</text>
  <rect x="94.4" y="45" width="29.4" height="310" fill="#1b4b3a" opacity="0.3"/>
  <text x="109.1" y="390" text-anchor="middle" class="phase-label">RAMP</text>
  <rect x="123.8" y="45" width="58.8" height="310" fill="#4b3a1b" opacity="0.3"/>
  <text x="153.2" y="390" text-anchor="middle" class="phase-label">PEAK</text>
  <rect x="182.6" y="45" width="588.0" height="310" fill="#4b1b1b" opacity="0.3"/>
  <text x="476.6" y="390" text-anchor="middle" class="phase-label">DECAY</text>
  <path d="M 65.0,326.8 L 70.9,326.8 L 76.8,326.8 L 82.6,326.8 L 88.5,326.8 L 94.4,326.8 L 94.4,326.8 L 95.0,326.5 L 95.6,325.6 L 96.2,324.1 L 96.8,322.0 L 97.3,319.4 L 97.9,316.3 L 98.5,312.8 L 99.1,308.7 L 99.7,304.3 L 100.3,299.4 L 100.9,294.2 L 101.5,288.6 L 102.0,282.6 L 102.6,276.4 L 103.2,269.9 L 103.8,263.1 L 104.4,256.1 L 105.0,249.0 L 105.6,241.6 L 106.2,234.1 L 106.7,226.4 L 107.3,218.7 L 107.9,210.8 L 108.5,203.0 L 109.1,195.1 L 109.7,187.2 L 110.3,179.3 L 110.9,171.5 L 111.5,163.7 L 112.0,156.1 L 112.6,148.5 L 113.2,141.2 L 113.8,134.0 L 114.4,127.0 L 115.0,120.2 L 115.6,113.7 L 116.2,107.5 L 116.7,101.6 L 117.3,96.0 L 117.9,90.7 L 118.5,85.9 L 119.1,81.4 L 119.7,77.4 L 120.3,73.8 L 120.9,70.7 L 121.4,68.1 L 122.0,66.1 L 122.6,64.5 L 123.2,63.6 L 123.8,63.3 L 123.8,63.3 L 129.7,63.3 L 135.6,63.3 L 141.4,63.3 L 147.3,63.3 L 153.2,63.3 L 159.1,63.3 L 165.0,63.3 L 170.8,63.3 L 176.7,63.3 L 182.6,63.3 L 182.6,63.3 L 185.5,66.6 L 188.5,69.9 L 191.4,73.1 L 194.4,76.3 L 197.3,79.5 L 200.2,82.6 L 203.2,85.8 L 206.1,88.9 L 209.1,92.0 L 212.0,95.0 L 214.9,98.1 L 217.9,101.1 L 220.8,104.1 L 223.8,107.0 L 226.7,110.0 L 229.6,112.9 L 232.6,115.8 L 235.5,118.7 L 238.5,121.5 L 241.4,124.3 L 244.3,127.1 L 247.3,129.9 L 250.2,132.7 L 253.2,135.4 L 256.1,138.1 L 259.0,140.8 L 262.0,143.5 L 264.9,146.1 L 267.9,148.7 L 270.8,151.3 L 273.7,153.9 L 276.7,156.4 L 279.6,158.9 L 282.6,161.4 L 285.5,163.9 L 288.4,166.4 L 291.4,168.8 L 294.3,171.2 L 297.3,173.6 L 300.2,176.0 L 303.1,178.3 L 306.1,180.7 L 309.0,183.0 L 312.0,185.2 L 314.9,187.5 L 317.8,189.7 L 320.8,191.9 L 323.7,194.1 L 326.7,196.3 L 329.6,198.5 L 332.5,200.6 L 335.5,202.7 L 338.4,204.8 L 341.4,206.8 L 344.3,208.9 L 347.2,210.9 L 350.2,212.9 L 353.1,214.9 L 356.1,216.9 L 359.0,218.8 L 361.9,220.7 L 364.9,222.6 L 367.8,224.5 L 370.8,226.3 L 373.7,228.2 L 376.6,230.0 L 379.6,231.8 L 382.5,233.6 L 385.5,235.3 L 388.4,237.1 L 391.3,238.8 L 394.3,240.5 L 397.2,242.2 L 400.2,243.8 L 403.1,245.4 L 406.0,247.1 L 409.0,248.7 L 411.9,250.2 L 414.9,251.8 L 417.8,253.3 L 420.7,254.9 L 423.7,256.4 L 426.6,257.8 L 429.6,259.3 L 432.5,260.8 L 435.4,262.2 L 438.4,263.6 L 441.3,265.0 L 444.3,266.4 L 447.2,267.7 L 450.1,269.0 L 453.1,270.4 L 456.0,271.7 L 459.0,272.9 L 461.9,274.2 L 464.8,275.4 L 467.8,276.7 L 470.7,277.9 L 473.7,279.1 L 476.6,280.2 L 479.5,281.4 L 482.5,282.5 L 485.4,283.7 L 488.4,284.8 L 491.3,285.8 L 494.2,286.9 L 497.2,288.0 L 500.1,289.0 L 503.1,290.0 L 506.0,291.0 L 508.9,292.0 L 511.9,293.0 L 514.8,293.9 L 517.8,294.9 L 520.7,295.8 L 523.6,296.7 L 526.6,297.6 L 529.5,298.5 L 532.5,299.3 L 535.4,300.2 L 538.3,301.0 L 541.3,301.8 L 544.2,302.6 L 547.2,303.4 L 550.1,304.1 L 553.0,304.9 L 556.0,305.6 L 558.9,306.3 L 561.9,307.0 L 564.8,307.7 L 567.7,308.4 L 570.7,309.1 L 573.6,309.7 L 576.6,310.3 L 579.5,311.0 L 582.4,311.6 L 585.4,312.1 L 588.3,312.7 L 591.3,313.3 L 594.2,313.8 L 597.1,314.4 L 600.1,314.9 L 603.0,315.4 L 606.0,315.9 L 608.9,316.4 L 611.8,316.8 L 614.8,317.3 L 617.7,317.7 L 620.7,318.2 L 623.6,318.6 L 626.5,319.0 L 629.5,319.4 L 632.4,319.8 L 635.4,320.1 L 638.3,320.5 L 641.2,320.8 L 644.2,321.2 L 647.1,321.5 L 650.1,321.8 L 653.0,322.1 L 655.9,322.4 L 658.9,322.7 L 661.8,322.9 L 664.8,323.2 L 667.7,323.4 L 670.6,323.7 L 673.6,323.9 L 676.5,324.1 L 679.5,324.3 L 682.4,324.5 L 685.3,324.7 L 688.3,324.9 L 691.2,325.1 L 694.2,325.2 L 697.1,325.4 L 700.0,325.5 L 703.0,325.6 L 705.9,325.8 L 708.9,325.9 L 711.8,326.0 L 714.7,326.1 L 717.7,326.2 L 720.6,326.3 L 723.6,326.3 L 726.5,326.4 L 729.4,326.5 L 732.4,326.5 L 735.3,326.6 L 738.3,326.6 L 741.2,326.7 L 744.1,326.7 L 747.1,326.7 L 750.0,326.8 L 753.0,326.8 L 755.9,326.8 L 758.8,326.8 L 761.8,326.8 L 764.7,326.8 L 767.7,326.8 L 770.6,326.8" fill="none" stroke="#ef5350" stroke-width="2.5" stroke-linecap="round" stroke-linejoin="round"/>
  <circle cx="82.6" cy="326.8" r="4" fill="#ffab91" stroke="#1a1a2e" stroke-width="1.5"/>
  <text x="82.6" y="314.8" text-anchor="middle" class="event-label">Song starts</text>
  <circle cx="94.4" cy="326.8" r="4" fill="#ffab91" stroke="#1a1a2e" stroke-width="1.5"/>
  <text x="94.4" y="314.8" text-anchor="middle" class="event-label">Sandy activates</text>
  <circle cx="123.8" cy="63.3" r="4" fill="#ffab91" stroke="#1a1a2e" stroke-width="1.5"/>
  <text x="123.8" y="79.3" text-anchor="middle" class="event-label">Peak begins</text>
  <circle cx="182.6" cy="63.3" r="4" fill="#ffab91" stroke="#1a1a2e" stroke-width="1.5"/>
  <text x="182.6" y="79.3" text-anchor="middle" class="event-label">Decay starts</text>
  <text x="153.2" y="55.3" text-anchor="middle" class="phase-value" style="fill:#ef5350;">99.35%</text>
  <line x1="770.6" y1="45" x2="770.6" y2="355" stroke="#ef5350" stroke-width="1" stroke-dasharray="4,3" opacity="0.7"/>
  <text x="770.6" y="40.0" text-anchor="middle" class="event-label" style="font-size:10px;">FLATLINED</text>
</svg>